<svg width="299.84" height="299.84" viewBox="0 0 224.88 224.88" xmlns="http://www.w3.org/2000/svg"><g transform="translate(-3.866 -14.578)"><rect x="11.366" y="22.078" width="209.88" height="209.88" ry="13.523" fill="#56bc3a"/><path d="M62.314 231.96h145.41a13.493 13.493 0 0 0 13.523-13.523V86.977c-109.53-19.382-158.93 144.98-158.93 144.98z" fill="#36c1df"/></g><path opacity=".335" d="M173.19 92.012c-2.987 6.581 23.116 21.259 7.869 36.129-18.502 16.613 8.56 36.592-21.823 51.472-16.422 4.782-43.518-38.241-47.51-10.136-2.672 36.879-43.356 18.551-16.493 53.526H48.02c-4.77-46.459 15.402-83.567 38.889-91.661 63.696-21.95 27.812-40.803 67.037-69.23 24.344-20.731 39.502-33.812 69.05-22.989l-.694 39.645c-15.225 10.522-44.572 3.239-49.113 13.244z" fill="#dece95"/><g transform="translate(-3.866 -14.578)"><path d="M171.44 100.97c-2.987 6.581 23.116 21.259 7.869 36.129-18.502 16.613 8.56 36.592-21.823 51.472-16.422 4.782-43.518-38.241-47.51-10.136-2.672 36.879-43.356 18.551-16.493 53.526H46.27c-4.77-46.459 15.402-83.567 38.889-91.661 63.695-21.95 27.812-40.803 67.037-69.23 24.344-20.731 39.502-33.812 69.05-22.989l-.694 39.645c-15.225 10.522-44.572 3.239-49.113 13.244z" fill="#dece95"/><rect x="11.366" y="22.078" width="209.88" height="209.88" ry="13.523" fill="none" stroke="#437c33" stroke-width="15"/></g></svg>
