<svg width="224.88pt" height="224.88pt" version="1.0" viewBox="0 0 224.88 224.88" xmlns="http://www.w3.org/2000/svg">
 <g transform="translate(-3.8659 -14.578)">
  <rect x="11.366" y="22.078" width="209.88" height="209.88" ry="13.523" fill="#56bc3a" stroke-width="0"/>
 </g>
 <g transform="translate(-3.8659 -14.578)">
  <path d="m62.314 231.96h145.41c7.492 0 13.523-6.0314 13.523-13.523v-131.46c-109.53-19.382-158.93 144.98-158.93 144.98z" fill="#36c1df" stroke-width="0"/>
 </g>
 <g opacity=".33548">
  <path d="m173.19 92.012c-2.9871 6.581 23.116 21.259 7.8689 36.129-18.502 16.613 8.5594 36.592-21.823 51.472-16.422 4.7817-43.518-38.241-47.51-10.136-2.6715 36.879-43.356 18.551-16.493 53.526h-47.213c-4.7692-46.459 15.402-83.567 38.889-91.661 63.696-21.95 27.812-40.803 67.037-69.23 24.344-20.731 39.502-33.812 69.051-22.989l-0.69479 39.645c-15.225 10.522-44.572 3.2388-49.113 13.244z" fill="#dece95" stroke-width="0"/>
 </g>
 <g transform="translate(-3.8659 -14.578)">
  <path d="m171.44 100.97c-2.9871 6.581 23.116 21.259 7.8689 36.129-18.502 16.613 8.5594 36.592-21.823 51.472-16.422 4.7817-43.518-38.241-47.51-10.136-2.6715 36.879-43.356 18.551-16.493 53.526h-47.213c-4.7692-46.459 15.402-83.567 38.889-91.661 63.695-21.95 27.812-40.803 67.037-69.23 24.344-20.731 39.502-33.812 69.051-22.989l-0.69478 39.645c-15.225 10.522-44.572 3.2388-49.113 13.244z" fill="#dece95" stroke-width="0"/>
 </g>
 <g transform="translate(-3.8659 -14.578)" >
  <rect x="11.366" y="22.078" width="209.88" height="209.88" ry="13.523" fill="none" stroke="#437c33" stroke-width="15" />
 </g>
</svg>
