<svg width="309.933" height="350.787" version="1.0" viewBox="0 0 232.45 263.09" xmlns="http://www.w3.org/2000/svg"><path d="M116.257.415.867 55.325l21.416 10.26 93.994-44.638 93.893 44.636 21.412-10.259z" fill="#5e6464" stroke="#5e6464"/><path d="m116.257 110.235-93.894-44.65 93.912-44.635 93.717 44.623z" fill="#929594" stroke="#929594"/><path d="M.87 207.725v-152.4l21.345 10.226c.06 39.51.07 86.343.082 132.49l93.97 44.597v19.867z" fill="#525252" stroke="#525252"/><path d="m22.296 198.035.048-132.43 93.923 44.642v132.37z" fill="#696969" stroke="#696969"/><path d="m210.227 197.975-.044-132.39-93.913 44.674v132.37z" fill="#555356" stroke="#555356"/><path d="m210.237 65.552-.013 132.42-93.957 44.64V262.5l115.32-54.774v-152.4z" fill="#3c373d" stroke="#3c373d"/></svg>