<svg width="194.86pt" height="225pt" viewBox="0 0 194.86 225"><g transform="translate(-56.845 -44.525)"><path transform="matrix(.75 0 0 .75 56.845 44.525)" d="m233.83 60-25.981 15 25.981 15 25.981-15z" fill="#108a6f"/><path transform="matrix(.75 0 0 .75 56.845 44.525)" d="m207.85 45-25.981 15 25.981 15 25.981-15z" fill="#169611"/><path transform="matrix(.75 0 0 .75 56.845 44.525)" d="m181.87 30-25.981 15 25.981 15 25.981-15z" fill="#6b840f"/><path transform="matrix(.75 0 0 .75 56.845 44.525)" d="m155.88 15-25.981 15 25.981 15 25.981-15z" fill="#a08904"/><path transform="matrix(.75 0 0 .75 56.845 44.525)" d="m51.962 75-25.981-15-25.981 15 25.981 15z" fill="#e00505"/><path transform="matrix(.75 0 0 .75 56.845 44.525)" d="m51.962 45-25.981 15 25.981 15 25.981-15z" fill="#af4604"/><path transform="matrix(.75 0 0 .75 56.845 44.525)" d="m77.942 30-25.981 15 25.981 15 25.981-15z" fill="#bc7204"/><path transform="matrix(.75 0 0 .75 56.845 44.525)" d="m103.92 15-25.981 15 25.981 15 25.981-15z" fill="#9f8d04"/><path transform="matrix(.75 0 0 .75 56.845 44.525)" d="m129.9 0-25.981 15 25.981 15 25.981-15z" fill="#6e9803"/><path transform="matrix(.75 0 0 .75 56.845 44.525)" d="m51.962 75-25.981 15 25.981 15 25.98-15z" fill="#fb6b4e"/><path transform="matrix(.75 0 0 .75 56.845 44.525)" d="m51.962 75 25.981 15 25.981-15-25.981-15z" fill="#fb4e4e"/><path transform="matrix(.75 0 0 .75 56.845 44.525)" d="m77.942 60 25.981 15 25.981-15-25.981-15z" fill="#fb5f4e"/><path transform="matrix(.75 0 0 .75 56.845 44.525)" d="m103.92 45 25.981 15 25.981-15-25.981-15z" fill="#fb8a4e"/><path transform="matrix(.75 0 0 .75 56.845 44.525)" d="m77.942 90-25.981 15 25.981 15 25.981-15z" fill="#fb644e"/><path transform="matrix(.75 0 0 .75 56.845 44.525)" d="m77.942 90 25.981 15 25.981-15-25.981-15z" fill="#fb4e4e"/><path transform="matrix(.75 0 0 .75 56.845 44.525)" d="m103.92 75 25.981 15 25.981-15-25.981-15z" fill="#fb6f4e"/><path transform="matrix(.75 0 0 .75 56.845 44.525)" d="m129.9 60 25.981 15 25.981-15-25.981-15z" fill="#fbde4e"/><path transform="matrix(.75 0 0 .75 56.845 44.525)" d="m103.92 105-25.981 15 25.981 15 25.981-15z" fill="#fb4e4e"/><path transform="matrix(.75 0 0 .75 56.845 44.525)" d="m103.92 105 25.981 15 25.981-15-25.981-15z" fill="#fb6d4e"/><path transform="matrix(.75 0 0 .75 56.845 44.525)" d="m129.9 90 25.981 15 25.981-15-25.981-15z" fill="#fbf14e"/><path transform="matrix(.75 0 0 .75 56.845 44.525)" d="m155.88 75 25.981 15 25.981-15-25.981-15z" fill="#20dd19"/><path transform="matrix(.75 0 0 .75 56.845 44.525)" d="m129.9 120-25.981 15 25.981 15 25.981-15z" fill="#fc9134"/><path transform="matrix(.75 0 0 .75 56.845 44.525)" d="m129.9 120 25.981 15 25.981-15-25.981-15z" fill="#fbd94e"/><path transform="matrix(.75 0 0 .75 56.845 44.525)" d="m155.88 105 25.981 15 25.981-15-25.981-15z" fill="#d6fb4e"/><path transform="matrix(.75 0 0 .75 56.845 44.525)" d="m181.87 90 25.981 15 25.981-15-25.981-15z" fill="#1cbe15"/><path transform="matrix(.75 0 0 .75 56.845 44.525)" d="m103.92 255-7.9e-4 30 25.982 15v-30z" fill="#009ca8"/><path transform="matrix(.75 0 0 .75 56.845 44.525)" d="m77.942 240v30l25.981 15v-30z" fill="#009694"/><path transform="matrix(.75 0 0 .75 56.845 44.525)" d="m51.962 225v30l25.981 15v-30z" fill="#00911b"/><path transform="matrix(.75 0 0 .75 56.845 44.525)" d="m25.981 210-2.92e-4 30 25.981 15v-30z" fill="#00c02b"/><path transform="matrix(.75 0 0 .75 56.845 44.525)" d="m25.981 210-25.981-15v30l25.981 15z" fill="#5ccc00"/><path transform="matrix(.75 0 0 .75 56.845 44.525)" d="m25.981 180-25.981-15v30l25.981 15z" fill="#c8c800"/><path transform="matrix(.75 0 0 .75 56.845 44.525)" d="m-1.2343e-6 135v30l25.981 15v-30z" fill="#e39200"/><path transform="matrix(.75 0 0 .75 56.845 44.525)" d="m-1.2343e-6 105v30l25.981 15v-30z" fill="#b84300"/><path transform="matrix(.75 0 0 .75 56.845 44.525)" d="m-1.2343e-6 75v30l25.981 15v-30z" fill="#b8000e"/><path transform="matrix(.75 0 0 .75 56.845 44.525)" d="m51.962 195-25.981-15v30l25.981 15z" fill="#cbff00"/><path transform="matrix(.75 0 0 .75 56.845 44.525)" d="m25.981 150v30l25.981 15v-30z" fill="#fffa00"/><path transform="matrix(.75 0 0 .75 56.845 44.525)" d="m25.981 120v30l25.981 15v-30z" fill="#ffbe00"/><path transform="matrix(.75 0 0 .75 56.845 44.525)" d="m25.981 90v30l25.981 15v-30z" fill="#ff7100"/><path transform="matrix(.75 0 0 .75 56.845 44.525)" d="m103.92 225v30l25.981 15v-30z" fill="#00d6e6"/><path transform="matrix(.75 0 0 .75 56.845 44.525)" d="m103.92 225 25.981 15v-30l-25.98-15z" fill="#fff700"/><path transform="matrix(.75 0 0 .75 56.845 44.525)" d="m103.92 195 25.98 15v-30l-25.981-15z" fill="#ff8d00"/><path transform="matrix(.75 0 0 .75 56.845 44.525)" d="m103.92 165 25.981 15v-30l-25.981-15z" fill="#ff5100"/><path transform="matrix(.75 0 0 .75 56.845 44.525)" d="m77.942 210v30l25.982 15-7.8e-4 -30z" fill="#00c830"/><path transform="matrix(.75 0 0 .75 56.845 44.525)" d="m77.942 210 25.981 15 7.8e-4 -30-25.982-15z" fill="#cbff00"/><path transform="matrix(.75 0 0 .75 56.845 44.525)" d="m77.942 180 25.982 15-7.8e-4 -30-25.981-15z" fill="#ffa600"/><path transform="matrix(.75 0 0 .75 56.845 44.525)" d="m77.942 150 25.981 15v-30l-25.981-15z" fill="#ff0013"/><path transform="matrix(.75 0 0 .75 56.845 44.525)" d="m51.962 195v30l25.981 15v-30z" fill="#9aff00"/><path transform="matrix(.75 0 0 .75 56.845 44.525)" d="m51.962 195 25.981 15v-30l-25.981-15z" fill="#ffe200"/><path transform="matrix(.75 0 0 .75 56.845 44.525)" d="m51.962 165 25.981 15v-30l-25.981-15z" fill="#ffb700"/><path transform="matrix(.75 0 0 .75 56.845 44.525)" d="m51.962 135 25.981 15-8.79e-4 -30-25.98-15z" fill="#ff5c00"/><path transform="matrix(.75 0 0 .75 56.845 44.525)" d="m155.88 165v-30l-25.981 15v30z" fill="#cfcb00"/><path transform="matrix(.75 0 0 .75 56.845 44.525)" d="m155.88 195v-30l-25.981 15v30z" fill="#bfcf00"/><path transform="matrix(.75 0 0 .75 56.845 44.525)" d="m155.88 225v-30l-25.981 15v30z" fill="#00c727"/><path transform="matrix(.75 0 0 .75 56.845 44.525)" d="m155.88 225-25.981 15v30l25.981-15z" fill="#00d6e6"/><path transform="matrix(.75 0 0 .75 56.845 44.525)" d="m181.87 150v-30l-25.981 15v30z" fill="#00ac0a"/><path transform="matrix(.75 0 0 .75 56.845 44.525)" d="m181.87 180v-30l-25.981 15v30z" fill="#00cf76"/><path transform="matrix(.75 0 0 .75 56.845 44.525)" d="m181.87 210v-30l-25.981 15v30z" fill="#004bcf"/><path transform="matrix(.75 0 0 .75 56.845 44.525)" d="m181.87 210-25.981 15v30l25.981-15z" fill="#002fcf"/><path transform="matrix(.75 0 0 .75 56.845 44.525)" d="m207.85 135v-30l-25.981 15v30z" fill="#0fa700"/><path transform="matrix(.75 0 0 .75 56.845 44.525)" d="m207.85 165v-30l-25.981 15v30z" fill="#00aacf"/><path transform="matrix(.75 0 0 .75 56.845 44.525)" d="m207.85 195v-30l-25.981 15v30z" fill="#002fcf"/><path transform="matrix(.75 0 0 .75 56.845 44.525)" d="m207.85 195-25.981 15v30l25.981-15z" fill="#005fcf"/><path transform="matrix(.75 0 0 .75 56.845 44.525)" d="m233.83 180-25.981 15v30l25.981-15z" fill="#00f0c1"/><path transform="matrix(.75 0 0 .75 56.845 44.525)" d="m233.83 150-25.981 15v30l25.981-15z" fill="#00cf99"/><path transform="matrix(.75 0 0 .75 56.845 44.525)" d="m233.83 120-25.981 15v30l25.981-15z" fill="#002fcf"/><path transform="matrix(.75 0 0 .75 56.845 44.525)" d="m233.83 90-25.981 15v30l25.981-15z" fill="#00c4cf"/><path transform="matrix(.75 0 0 .75 56.845 44.525)" d="m155.88 285v-30l-25.981 15v30z" fill="#001f87"/><path transform="matrix(.75 0 0 .75 56.845 44.525)" d="m181.87 270v-30l-25.981 15v30z" fill="#00239a"/><path transform="matrix(.75 0 0 .75 56.845 44.525)" d="m207.85 255v-30l-25.981 15v30z" fill="#00608f"/><path transform="matrix(.75 0 0 .75 56.845 44.525)" d="m233.83 210-25.981 15v30l25.981-15z" fill="#008529"/><path transform="matrix(.75 0 0 .75 56.845 44.525)" d="m259.81 195-25.981 15v30l25.981-15z" fill="#7c8d00"/><path transform="matrix(.75 0 0 .75 56.845 44.525)" d="m259.81 165-25.981 15v30l25.981-15z" fill="#029300"/><path transform="matrix(.75 0 0 .75 56.845 44.525)" d="m259.81 135-25.981 15v30l25.981-15z" fill="#007d7d"/><path transform="matrix(.75 0 0 .75 56.845 44.525)" d="m259.81 105-25.981 15v30l25.981-15z" fill="#001d80"/><path transform="matrix(.75 0 0 .75 56.845 44.525)" d="m259.81 75-25.981 15v30l25.981-15z" fill="#002193"/></g></svg>
