<svg width="309.933" height="350.787" version="1.0" viewBox="0 0 232.45 263.09" xmlns="http://www.w3.org/2000/svg">
    <path d="M116.257.415.867 55.325l21.416 10.26 93.994-44.638 93.893 44.636 21.412-10.259z" fill="#61585b"
          stroke="#61585b"/>
    <path d="m116.257 110.235-93.894-44.65 93.912-44.635 93.717 44.623z" fill="#9ba2a3" stroke="#9ba2a3"/>
    <path d="m22.296 198.035.048-132.43 93.923 44.642v132.37z" fill="#776d70" stroke="#776d70"/>
    <path d="M116.267 244.095v-90.23L9.157 204.708z" fill="#7b777e" stroke="#7b777e"/>
    <path d="M.87 207.725v-152.4l21.345 10.226c.06 39.51.07 86.343.082 132.49l93.97 44.597v19.867z" fill="#67656a"
          stroke="#67656a"/>
    <path d="m210.227 197.975-.044-132.39-93.913 44.674v132.37z" fill="#84858b" stroke="#84858b"/>
    <path d="m210.237 65.552-.013 132.42-93.957 44.64V262.5l115.32-54.774v-152.4z" fill="#838e90" stroke="#838e90"/>
</svg>
