<svg width="232.45pt" height="263.09pt" version="1.0" viewBox="0 0 232.45 263.09" xmlns="http://www.w3.org/2000/svg">
 <g transform="translate(-22.273 -7.0247)">
  <path d="m138.53 7.44-115.39 54.909 21.416 10.26 93.994-44.637 93.893 44.636 21.412-10.259z" fill="#5e6464" stroke="#5e6464" stroke-width=".75"/>
  <g stroke-width=".75px">
   <path d="m138.53 117.26-93.894-44.651 93.912-44.634 93.717 44.623z" fill="#929594" stroke="#929594"/>
   <path d="m23.143 214.75v-152.4l21.345 10.226c0.05947 39.509 0.07066 86.343 0.08167 132.49l93.97 44.597-5e-5 19.867z" fill="#525252" stroke="#525252"/>
   <path d="m44.569 205.06 0.04767-132.43 93.923 44.642-3e-5 132.37z" fill="#696969" stroke="#696969"/>
   <path d="m232.5 205-0.044-132.39-93.913 44.674 1e-5 132.37z" fill="#555356" stroke="#555356"/>
   <path d="m232.51 72.577-0.013 132.42-93.957 44.64 3e-5 19.887 115.32-54.774v-152.4z" fill="#3c373d" stroke="#3c373d"/>
  </g>
 </g>
</svg>
