<svg width="340.467" height="273.187" version="1.0" viewBox="0 0 255.35 204.89" xmlns="http://www.w3.org/2000/svg"><path d="M61.254 0C27.32 0 0 27.318 0 61.252v42.163c0 33.934 27.319 61.252 61.254 61.252h15.259l-21.095 38.319c-.46 1.82.236 2.723 3.955.918 13.531-6.566 53.741-27.223 77.092-39.237h57.636c33.934 0 61.254-27.318 61.254-61.252V61.252C255.355 27.317 228.036 0 194.101 0zm.053 80.558a17.531 17.531 0 0 1 .095 0 17.531 17.531 0 0 1 17.53 17.531 17.531 17.531 0 0 1-17.53 17.531A17.531 17.531 0 0 1 43.87 98.089a17.531 17.531 0 0 1 17.436-17.531zm67.688 0a17.531 17.531 0 0 1 .095 0 17.531 17.531 0 0 1 17.53 17.531 17.531 17.531 0 0 1-17.53 17.531 17.531 17.531 0 0 1-17.531-17.531 17.531 17.531 0 0 1 17.436-17.531zm67.733 0a17.531 17.531 0 0 1 .095 0 17.531 17.531 0 0 1 17.53 17.531 17.531 17.531 0 0 1-17.53 17.531 17.531 17.531 0 0 1-17.531-17.531 17.531 17.531 0 0 1 17.436-17.531z"/></svg>