<svg width="255.35pt" height="204.89pt" version="1.0" viewBox="0 0 255.35 204.89" xmlns="http://www.w3.org/2000/svg">
 <g transform="translate(-2.1211 -27.577)" stroke-width="0">
  <path transform="scale(.75)" d="m84.5 36.77c-45.246 0-81.672 36.424-81.672 81.67v56.217c0 45.246 36.426 81.67 81.672 81.67h177.13c45.246 0 81.672-36.424 81.672-81.67v-56.217c0-45.246-36.426-81.67-81.672-81.67zm0.07031 107.41a23.375 23.375 0 0 1 0.12695 0 23.375 23.375 0 0 1 23.375 23.375 23.375 23.375 0 0 1-23.375 23.375 23.375 23.375 0 0 1-23.375-23.375 23.375 23.375 0 0 1 23.248-23.375zm90.25 0a23.375 23.375 0 0 1 0.12696 0 23.375 23.375 0 0 1 23.375 23.375 23.375 23.375 0 0 1-23.375 23.375 23.375 23.375 0 0 1-23.375-23.375 23.375 23.375 0 0 1 23.248-23.375zm90.312 0a23.375 23.375 0 0 1 0.12696 0 23.375 23.375 0 0 1 23.375 23.375 23.375 23.375 0 0 1-23.375 23.375 23.375 23.375 0 0 1-23.375-23.375 23.375 23.375 0 0 1 23.248-23.375z"/>
  <path d="m84.929 180.81-27.39 49.754c-0.45922 1.8202 0.23674 2.7233 3.9555 0.91854 18.017-8.7437 98.169-50.072 98.169-50.072" />
 </g>
</svg>
