<svg width="200" height="160" version="1.1" viewBox="0 0 200 160" xmlns="http://www.w3.org/2000/svg">
 <g>
  <g>
   <path d="m123.33 73.355a1.0677 1.0677 0 0 0-1.0684 1.0684 1.0677 1.0677 0 0 0 1.0684 1.0684h6.7402a1.0677 1.0677 0 0 0 1.0684-1.0684 1.0677 1.0677 0 0 0-1.0684-1.0684z"/>
   <path d="m129.96 61.701a1.0677 1.0677 0 0 0-0.2832 0.03516l-6.5117 1.7441a1.0677 1.0677 0 0 0-0.75391 1.3086 1.0677 1.0677 0 0 0 1.3066 0.75586l6.5117-1.7461a1.0677 1.0677 0 0 0 0.75391-1.3066 1.0677 1.0677 0 0 0-1.0234-0.79102z"/>
   <path d="m123.46 83.266a1.0677 1.0677 0 0 0-1.0508 0.79102 1.0677 1.0677 0 0 0 0.7539 1.3086l6.5117 1.7441a1.0677 1.0677 0 0 0 1.3066-0.75586 1.0677 1.0677 0 0 0-0.7539-1.3066l-6.5117-1.7441a1.0677 1.0677 0 0 0-0.25586-0.03711z"/>
   <path d="m128.3 49.459a1.0677 1.0677 0 0 0-0.72461 0.31055l-4.7656 4.7656a1.0677 1.0677 0 0 0 0 1.5117 1.0677 1.0677 0 0 0 1.5098 0l4.7656-4.7656a1.0677 1.0677 0 0 0 0-1.5117 1.0677 1.0677 0 0 0-0.78515-0.31055z"/>
   <path d="m114.37 94.203a1.0677 1.0677 0 0 0-0.28321 0.04687 1.0677 1.0677 0 0 0-0.70117 1.3379l1.3027 4.1777a1.0677 1.0677 0 0 0 1.3359 0.70118 1.0677 1.0677 0 0 0 0.70313-1.3359l-1.3027-4.1797a1.0677 1.0677 0 0 0-1.0547-0.74805z"/>
   <path d="m123.16 91.996a1.0677 1.0677 0 0 0-0.72461 0.3125 1.0677 1.0677 0 0 0 0 1.5098l4.7656 4.7656a1.0677 1.0677 0 0 0 1.5098 0 1.0677 1.0677 0 0 0 0-1.5098l-4.7656-4.7656a1.0677 1.0677 0 0 0-0.78516-0.3125z"/>
   <path d="m104.93 47.242a1.0677 1.0677 0 0 0-1.0684 1.0664v6.7402a1.0677 1.0677 0 0 0 1.0684 1.0684 1.0677 1.0677 0 0 0 1.0664-1.0684v-6.7402a1.0677 1.0677 0 0 0-1.0664-1.0664z"/>
   <path d="m93.283 47.357a1.0677 1.0677 0 0 0-0.28516 0.03516 1.0677 1.0677 0 0 0-0.75391 1.3086l1.7441 6.5098a1.0677 1.0677 0 0 0 1.3086 0.75391 1.0677 1.0677 0 0 0 0.75391-1.3066l-1.7441-6.5098a1.0677 1.0677 0 0 0-1.0234-0.79102z"/>
   <path d="m116.6 47.361a1.0677 1.0677 0 0 0-1.0508 0.79102l-1.7441 6.5098a1.0677 1.0677 0 0 0 0.75586 1.3066 1.0677 1.0677 0 0 0 1.3066-0.75391l1.7441-6.5098a1.0677 1.0677 0 0 0-0.7539-1.3086 1.0677 1.0677 0 0 0-0.25781-0.03516z"/>
   <path d="m81.002 48.977a1.0677 1.0677 0 0 0-0.72461 0.3125 1.0677 1.0677 0 0 0 0 1.5098l4.7656 4.7656a1.0677 1.0677 0 0 0 1.5098 0 1.0677 1.0677 0 0 0 0-1.5098l-4.7656-4.7656a1.0677 1.0677 0 0 0-0.78516-0.3125z"/>
  </g>
  <path d="m89.938 59.432v10.852c3.4258-0.39375 6.9291 0.9376 7.9922 4.6094 0.40346-0.21278 0.35849-0.19025 0.44531-0.23633 8.3721-3.8563 11.803 4.5742 8.5703 9.4219 4.2397 0.20726 6.1905 2.2386 6.7266 4.4609h5.375v-29.107zm8.6211 15.486c-65.706-49.945-32.853-24.973 0 0z"/>
  <path d="m91.104 71.066c-1.1528-0.01129-2.3479 0.19839-3.4434 0.61524-2.1909 0.83369-3.8886 2.4144-4.3047 4.4219-0.41608 2.0074 0.34439 4.7108 3.793 8.0312a1.071 1.071 0 0 1 0.0293 1.5137 1.071 1.071 0 0 1-1.5137 0.0293c-1.2149-1.1697-2.1466-2.3208-2.8555-3.4453-4.7346-1.035-7.5122 0.63769-8.7578 3.0234-1.2206 2.3379-0.85898 5.4819 1.291 7.7988h36.109c0.84689-0.74667 1.5903-2.6029 1.1738-4.2891-0.41806-1.6926-1.724-3.2474-5.1953-3.5625-0.95461 1.2047-2.2927 2.1692-4.041 2.6699a1.071 1.071 0 0 1-1.3242-0.73438 1.071 1.071 0 0 1 0.73438-1.3242c1.4086-0.40342 2.4445-1.1778 3.1465-2.1387a1.071 1.071 0 0 1 0.2461-0.36523c1e-3 -2e-3 3e-3 -0.0039 4e-3 -0.0059 0.92582-1.506 1.1077-3.3797 0.65625-5.0039-0.3953-1.4223-1.2601-2.5773-2.5371-3.1543-1.2102-0.54682-2.8829-0.61578-5.123 0.33008 0.12671 0.75629 0.18427 1.5621 0.12695 2.4375a1.071 1.071 0 0 1-1.1387 0.99805 1.071 1.071 0 0 1-0.99805-1.1387c0.21826-3.3336-1.0422-5.0613-2.8906-5.9961-0.92423-0.46739-2.0347-0.69965-3.1875-0.71094z"/>
  <path d="m86.346 96.055a1.071 1.071 0 0 0-0.87891 0.53516l-2.5059 4.3398a1.0711 1.0711 0 0 0 0.73242 1.5879l1.8926 0.35156-3.3848 5.8613a1.071 1.071 0 0 0 0.39258 1.4629 1.071 1.071 0 0 0 1.4629-0.39258l4.1406-7.1719a1.0711 1.0711 0 0 0-0.73242-1.5879l-1.8906-0.35157 1.748-3.0293a1.071 1.071 0 0 0-0.39258-1.4629 1.071 1.071 0 0 0-0.58398-0.14258z"/>
  <path d="m101.81 96.055a1.071 1.071 0 0 0-0.8789 0.53516l-2.5059 4.3398a1.0711 1.0711 0 0 0 0.73242 1.5879l1.8926 0.35156-3.3848 5.8613a1.071 1.071 0 0 0 0.39258 1.4629 1.071 1.071 0 0 0 1.4629-0.39258l4.1406-7.1719a1.0711 1.0711 0 0 0-0.73243-1.5879l-1.8906-0.35157 1.748-3.0293a1.071 1.071 0 0 0-0.39258-1.4629 1.071 1.071 0 0 0-0.58399-0.14258z"/>
 </g>
</svg>
