<svg width="200" height="160" xmlns="http://www.w3.org/2000/svg"><path d="M123.33 73.355a1.068 1.068 0 0 0-1.068 1.068 1.068 1.068 0 0 0 1.068 1.069h6.74a1.068 1.068 0 0 0 1.069-1.069 1.068 1.068 0 0 0-1.069-1.068zm6.63-11.654a1.068 1.068 0 0 0-.283.035l-6.512 1.744a1.068 1.068 0 0 0-.754 1.309 1.068 1.068 0 0 0 1.307.756l6.511-1.746a1.068 1.068 0 0 0 .754-1.307 1.068 1.068 0 0 0-1.023-.791zm-6.5 21.565a1.068 1.068 0 0 0-1.05.791 1.068 1.068 0 0 0 .753 1.309l6.512 1.744a1.068 1.068 0 0 0 1.306-.756 1.068 1.068 0 0 0-.753-1.307l-6.512-1.744a1.068 1.068 0 0 0-.256-.037zm4.84-33.807a1.068 1.068 0 0 0-.725.31l-4.765 4.766a1.068 1.068 0 0 0 0 1.512 1.068 1.068 0 0 0 1.51 0l4.765-4.766a1.068 1.068 0 0 0 0-1.511 1.068 1.068 0 0 0-.785-.311zm-13.93 44.744a1.068 1.068 0 0 0-.283.047 1.068 1.068 0 0 0-.701 1.338l1.302 4.177a1.068 1.068 0 0 0 1.336.702 1.068 1.068 0 0 0 .703-1.336l-1.302-4.18a1.068 1.068 0 0 0-1.055-.748zm8.79-2.207a1.068 1.068 0 0 0-.725.313 1.068 1.068 0 0 0 0 1.51l4.766 4.765a1.068 1.068 0 0 0 1.51 0 1.068 1.068 0 0 0 0-1.51l-4.766-4.765a1.068 1.068 0 0 0-.785-.313zm-18.23-44.754a1.068 1.068 0 0 0-1.068 1.066v6.74a1.068 1.068 0 0 0 1.068 1.069 1.068 1.068 0 0 0 1.066-1.068v-6.74a1.068 1.068 0 0 0-1.066-1.067zm-11.647.115a1.068 1.068 0 0 0-.285.035 1.068 1.068 0 0 0-.754 1.309l1.744 6.51a1.068 1.068 0 0 0 1.309.753 1.068 1.068 0 0 0 .754-1.306l-1.745-6.51a1.068 1.068 0 0 0-1.023-.791zm23.317.004a1.068 1.068 0 0 0-1.05.791l-1.745 6.51a1.068 1.068 0 0 0 .756 1.306 1.068 1.068 0 0 0 1.307-.753l1.744-6.51a1.068 1.068 0 0 0-.754-1.309 1.068 1.068 0 0 0-.258-.035zm-35.598 1.616a1.068 1.068 0 0 0-.725.313 1.068 1.068 0 0 0 0 1.51l4.766 4.765a1.068 1.068 0 0 0 1.51 0 1.068 1.068 0 0 0 0-1.51l-4.766-4.766a1.068 1.068 0 0 0-.785-.312zm8.936 10.455v10.852c3.426-.394 6.93.938 7.992 4.61.404-.213.359-.19.446-.237 8.372-3.856 11.803 4.574 8.57 9.422 4.24.207 6.19 2.239 6.726 4.46h5.375V59.434zm8.621 15.486c-65.706-49.945-32.853-24.973 0 0zM80.875 96.59a1.071 1.071 0 0 0-.902.496l-2.455 3.856a1.071 1.071 0 0 0 .328 1.478 1.071 1.071 0 0 0 1.478-.328l2.455-3.856a1.071 1.071 0 0 0-.326-1.478 1.071 1.071 0 0 0-.578-.168zm13.258 0a1.071 1.071 0 0 0-.9.496l-2.457 3.856a1.071 1.071 0 0 0 .328 1.478 1.071 1.071 0 0 0 1.478-.328l2.457-3.856a1.071 1.071 0 0 0-.328-1.478 1.071 1.071 0 0 0-.578-.168zm13.257 0a1.071 1.071 0 0 0-.9.496l-2.455 3.856a1.071 1.071 0 0 0 .328 1.478 1.071 1.071 0 0 0 1.478-.328l2.455-3.856a1.071 1.071 0 0 0-.328-1.478 1.071 1.071 0 0 0-.578-.168zm-21.212 7.95a1.071 1.071 0 0 0-.9.494l-2.457 3.856a1.071 1.071 0 0 0 .328 1.48 1.071 1.071 0 0 0 1.478-.328l2.457-3.855a1.071 1.071 0 0 0-.328-1.479 1.071 1.071 0 0 0-.578-.168zm13.26 0a1.071 1.071 0 0 0-.902.494l-2.455 3.856a1.071 1.071 0 0 0 .328 1.48 1.071 1.071 0 0 0 1.478-.328l2.455-3.855a1.071 1.071 0 0 0-.328-1.479 1.071 1.071 0 0 0-.576-.168z"/><path d="M91.104 71.066a9.532 9.532 0 0 0-3.443.615c-2.191.834-3.889 2.415-4.305 4.422-.416 2.008.344 4.71 3.793 8.031a1.071 1.071 0 0 1 .03 1.514 1.071 1.071 0 0 1-1.514.03c-1.215-1.17-2.147-2.321-2.856-3.446-4.735-1.035-7.512.638-8.758 3.023-1.22 2.338-.859 5.482 1.291 7.8h36.11c.846-.747 1.59-2.604 1.173-4.29-.418-1.692-1.724-3.247-5.195-3.562-.955 1.204-2.293 2.169-4.041 2.67a1.071 1.071 0 0 1-1.324-.735 1.071 1.071 0 0 1 .734-1.324c1.408-.403 2.444-1.178 3.146-2.139a1.071 1.071 0 0 1 .246-.365l.004-.006c.926-1.506 1.108-3.38.657-5.004-.396-1.422-1.26-2.577-2.537-3.154-1.21-.547-2.883-.616-5.123.33.126.756.184 1.562.127 2.438a1.071 1.071 0 0 1-1.14.998 1.071 1.071 0 0 1-.997-1.14c.218-3.333-1.042-5.06-2.89-5.995-.925-.468-2.035-.7-3.188-.711z"/></svg>