<svg width="200" height="160" xmlns="http://www.w3.org/2000/svg"><path d="M89.938 59.713v9.225h6.469v3.078c.242.244.462.516.664.808.91 1.027.916 1.781.916 1.781 4.571-2.083 9.359-1.688 10.61 4.801h2.247v5.62c1.729.898 2.598 2.319 2.875 3.794h5.328V59.713H103.25v4.975h-6.625v-4.975zm25.545 5.367v7.215h-7.521v-7.213z"/><path d="M91.104 71.066a9.532 9.532 0 0 0-3.443.615c-2.191.834-3.889 2.415-4.305 4.422-.416 2.008.344 4.71 3.793 8.031a1.071 1.071 0 0 1 .03 1.514 1.071 1.071 0 0 1-1.514.03c-1.215-1.17-2.147-2.321-2.856-3.446-4.735-1.035-7.512.638-8.758 3.023-1.22 2.338-.859 5.482 1.291 7.8h36.11c.846-.747 1.59-2.604 1.173-4.29-.418-1.692-1.724-3.247-5.195-3.562-.955 1.204-2.293 2.169-4.041 2.67a1.071 1.071 0 0 1-1.324-.735 1.071 1.071 0 0 1 .734-1.324c1.408-.403 2.444-1.178 3.146-2.139a1.071 1.071 0 0 1 .246-.365l.004-.006c.926-1.506 1.108-3.38.657-5.004-.396-1.422-1.26-2.577-2.537-3.154-1.21-.547-2.883-.616-5.123.33.126.756.184 1.562.127 2.438a1.071 1.071 0 0 1-1.14.998 1.071 1.071 0 0 1-.997-1.14c.218-3.333-1.042-5.06-2.89-5.995-.925-.468-2.035-.7-3.188-.711zm-4.758 24.989a1.071 1.071 0 0 0-.879.535l-2.506 4.34a1.071 1.071 0 0 0 .733 1.588l1.892.351-3.385 5.862a1.071 1.071 0 0 0 .393 1.463 1.071 1.071 0 0 0 1.463-.393l4.14-7.172a1.071 1.071 0 0 0-.732-1.588l-1.89-.351 1.747-3.03a1.071 1.071 0 0 0-.392-1.463 1.071 1.071 0 0 0-.584-.142zm15.464 0a1.071 1.071 0 0 0-.879.535l-2.506 4.34a1.071 1.071 0 0 0 .733 1.588l1.892.351-3.385 5.862a1.071 1.071 0 0 0 .393 1.463 1.071 1.071 0 0 0 1.463-.393l4.14-7.172a1.071 1.071 0 0 0-.732-1.588l-1.89-.351 1.747-3.03a1.071 1.071 0 0 0-.392-1.463 1.071 1.071 0 0 0-.584-.142z"/></svg>