<svg width="200" height="160" version="1.1" viewBox="0 0 200 160" xmlns="http://www.w3.org/2000/svg">
 <g>
  <path d="m85.562 65.682v9.2246h6.4688v6.75h-6.4688v13.133h12.031v-5.7891h3.4688v-3.625h5.4062v9.4141h8.2031v-29.107h-15.797v4.9746h-6.625v-4.9746h-6.6875zm25.545 5.3672v7.2148h-7.5215v-7.2129l7.5215-0.001953z"/>
  <g transform="translate(-21.213 1.7678)">
   <path d="m100.56 53.492a1.0677 1.0677 0 0 0-1.0684 1.0664v6.7402a1.0677 1.0677 0 0 0 1.0684 1.0684 1.0677 1.0677 0 0 0 1.0664-1.0684v-6.7402a1.0677 1.0677 0 0 0-1.0664-1.0664z"/>
   <path d="m97.186 56.861a1.0677 1.0677 0 0 0-1.0664 1.0684 1.0677 1.0677 0 0 0 1.0664 1.0664h6.7402a1.0677 1.0677 0 0 0 1.0684-1.0664 1.0677 1.0677 0 0 0-1.0684-1.0684h-6.7402z"/>
  </g>
  <g transform="translate(-3.5355 19.003)">
   <path d="m118.96 79.605a1.0677 1.0677 0 0 0-1.0684 1.0684 1.0677 1.0677 0 0 0 1.0684 1.0684h6.7402a1.0677 1.0677 0 0 0 1.0684-1.0684 1.0677 1.0677 0 0 0-1.0684-1.0684h-6.7402z"/>
   <path d="m122.32 76.236a1.0677 1.0677 0 0 0-1.0664 1.0684v6.7383a1.0677 1.0677 0 0 0 1.0664 1.0684 1.0677 1.0677 0 0 0 1.0684-1.0684v-6.7383a1.0677 1.0677 0 0 0-1.0684-1.0684z"/>
  </g>
 </g>
</svg>
