<svg width="200" height="160" xmlns="http://www.w3.org/2000/svg"><path d="M85.562 65.682v9.225h6.469v6.75h-6.469V94.79h12.031V89h3.469v-3.625h5.406v9.415h8.203V65.683H98.874v4.974H92.25v-4.974h-6.687zm25.545 5.367v7.215h-7.521v-7.213l7.521-.002zM79.347 55.26a1.068 1.068 0 0 0-1.068 1.066v6.74a1.068 1.068 0 0 0 1.068 1.069 1.068 1.068 0 0 0 1.066-1.069v-6.74a1.068 1.068 0 0 0-1.066-1.066z"/><path d="M75.973 58.629a1.068 1.068 0 0 0-1.066 1.068 1.068 1.068 0 0 0 1.066 1.067h6.74a1.068 1.068 0 0 0 1.069-1.067 1.068 1.068 0 0 0-1.069-1.068h-6.74zM115.424 98.608a1.068 1.068 0 0 0-1.068 1.068 1.068 1.068 0 0 0 1.069 1.069h6.74a1.068 1.068 0 0 0 1.068-1.069 1.068 1.068 0 0 0-1.068-1.068h-6.74z"/><path d="M118.784 95.239a1.068 1.068 0 0 0-1.066 1.068v6.739a1.068 1.068 0 0 0 1.066 1.068 1.068 1.068 0 0 0 1.069-1.068v-6.739a1.068 1.068 0 0 0-1.069-1.068z"/></svg>