<svg width="200" height="160" xmlns="http://www.w3.org/2000/svg"><path d="M89.938 59.713v9.225h6.469v3.078c.242.244.462.516.664.808.91 1.027.916 1.781.916 1.781 4.571-2.083 9.359-1.688 10.61 4.801h2.247v5.62c1.729.898 2.598 2.319 2.875 3.794h5.328V59.713H103.25v4.975h-6.625v-4.975zm25.545 5.367v7.215h-7.521v-7.213zm-36.14-9.851a1.068 1.068 0 0 0-1.068 1.066v6.74a1.068 1.068 0 0 0 1.068 1.069 1.068 1.068 0 0 0 1.066-1.068v-6.74a1.068 1.068 0 0 0-1.066-1.067z"/><path d="M75.972 58.598a1.068 1.068 0 0 0-1.066 1.068 1.068 1.068 0 0 0 1.066 1.067h6.74a1.068 1.068 0 0 0 1.069-1.067 1.068 1.068 0 0 0-1.069-1.068zm39.448 38.417a1.068 1.068 0 0 0-1.068 1.068 1.068 1.068 0 0 0 1.068 1.069h6.74a1.068 1.068 0 0 0 1.069-1.069 1.068 1.068 0 0 0-1.069-1.068z"/><path d="M118.79 93.646a1.068 1.068 0 0 0-1.066 1.068v6.739a1.068 1.068 0 0 0 1.066 1.068 1.068 1.068 0 0 0 1.068-1.068v-6.739a1.068 1.068 0 0 0-1.068-1.068zm-27.686-22.58a9.532 9.532 0 0 0-3.443.615c-2.191.834-3.889 2.415-4.305 4.422-.416 2.008.344 4.71 3.793 8.031a1.071 1.071 0 0 1 .03 1.514 1.071 1.071 0 0 1-1.514.03c-1.215-1.17-2.147-2.321-2.856-3.446-4.735-1.035-7.512.638-8.758 3.023-1.22 2.338-.859 5.482 1.291 7.8h36.11c.846-.747 1.59-2.604 1.173-4.29-.418-1.692-1.724-3.247-5.195-3.562-.955 1.204-2.293 2.169-4.041 2.67a1.071 1.071 0 0 1-1.324-.735 1.071 1.071 0 0 1 .734-1.324c1.408-.403 2.444-1.178 3.146-2.139a1.071 1.071 0 0 1 .246-.365l.004-.006c.926-1.506 1.108-3.38.657-5.004-.396-1.422-1.26-2.577-2.537-3.154-1.21-.547-2.883-.616-5.123.33.126.756.184 1.562.127 2.438a1.071 1.071 0 0 1-1.14.998 1.071 1.071 0 0 1-.997-1.14c.218-3.333-1.042-5.06-2.89-5.995-.925-.468-2.035-.7-3.188-.711zM80.875 96.59a1.071 1.071 0 0 0-.902.496l-2.455 3.856a1.071 1.071 0 0 0 .328 1.478 1.071 1.071 0 0 0 1.478-.328l2.455-3.856a1.071 1.071 0 0 0-.326-1.478 1.071 1.071 0 0 0-.578-.168zm13.258 0a1.071 1.071 0 0 0-.9.496l-2.457 3.856a1.071 1.071 0 0 0 .328 1.478 1.071 1.071 0 0 0 1.478-.328l2.457-3.856a1.071 1.071 0 0 0-.328-1.478 1.071 1.071 0 0 0-.578-.168zm13.257 0a1.071 1.071 0 0 0-.9.496l-2.455 3.856a1.071 1.071 0 0 0 .328 1.478 1.071 1.071 0 0 0 1.478-.328l2.455-3.856a1.071 1.071 0 0 0-.328-1.478 1.071 1.071 0 0 0-.578-.168zm-21.212 7.95a1.071 1.071 0 0 0-.9.494l-2.457 3.856a1.071 1.071 0 0 0 .328 1.48 1.071 1.071 0 0 0 1.478-.328l2.457-3.855a1.071 1.071 0 0 0-.328-1.479 1.071 1.071 0 0 0-.578-.168zm13.26 0a1.071 1.071 0 0 0-.902.494l-2.455 3.856a1.071 1.071 0 0 0 .328 1.48 1.071 1.071 0 0 0 1.478-.328l2.455-3.855a1.071 1.071 0 0 0-.328-1.479 1.071 1.071 0 0 0-.576-.168z"/></svg>