<svg width="200" height="160" version="1.1" viewBox="0 0 200 160" xmlns="http://www.w3.org/2000/svg">
 <g stroke-width="0">
  <path d="m118.96 79.605a1.0677 1.0677 0 0 0-1.0684 1.0684 1.0677 1.0677 0 0 0 1.0684 1.0684h6.7402a1.0677 1.0677 0 0 0 1.0684-1.0684 1.0677 1.0677 0 0 0-1.0684-1.0684h-6.7402z"/>
  <path d="m125.59 67.951a1.0677 1.0677 0 0 0-0.2832 0.035156l-6.5117 1.7441a1.0677 1.0677 0 0 0-0.75391 1.3086 1.0677 1.0677 0 0 0 1.3066 0.75586l6.5117-1.7461a1.0677 1.0677 0 0 0 0.75391-1.3066 1.0677 1.0677 0 0 0-1.0234-0.79102z"/>
  <path d="m119.09 89.516a1.0677 1.0677 0 0 0-1.0508 0.79102 1.0677 1.0677 0 0 0 0.7539 1.3086l6.5117 1.7441a1.0677 1.0677 0 0 0 1.3066-0.75586 1.0677 1.0677 0 0 0-0.7539-1.3066l-6.5117-1.7441a1.0677 1.0677 0 0 0-0.25586-0.037109z"/>
  <path d="m123.93 55.709a1.0677 1.0677 0 0 0-0.72461 0.31055l-4.7656 4.7656a1.0677 1.0677 0 0 0 0 1.5117 1.0677 1.0677 0 0 0 1.5098 0l4.7656-4.7656a1.0677 1.0677 0 0 0 0-1.5117 1.0677 1.0677 0 0 0-0.78515-0.31055z"/>
  <path d="m99.68 98.006a1.0677 1.0677 0 0 0-1.0684 1.0684v6.7383a1.0677 1.0677 0 0 0 1.0684 1.0684 1.0677 1.0677 0 0 0 1.0684-1.0684v-6.7383a1.0677 1.0677 0 0 0-1.0684-1.0684z"/>
  <path d="m109.6 98.121a1.0677 1.0677 0 0 0-0.28321 0.035156 1.0677 1.0677 0 0 0-0.7539 1.3086l1.7441 6.5098a1.0677 1.0677 0 0 0 1.3066 0.75391 1.0677 1.0677 0 0 0 0.75586-1.3066l-1.7441-6.5098a1.0677 1.0677 0 0 0-1.0254-0.79102z"/>
  <path d="m89.789 98.117a1.0677 1.0677 0 0 0-1.0508 0.79102l-1.7441 6.5098a1.0677 1.0677 0 0 0 0.75586 1.3066 1.0677 1.0677 0 0 0 1.3066-0.75391l1.7461-6.5098a1.0677 1.0677 0 0 0-0.75586-1.3086 1.0677 1.0677 0 0 0-0.25781-0.035156z"/>
  <path d="m118.78 98.246a1.0677 1.0677 0 0 0-0.72461 0.3125 1.0677 1.0677 0 0 0 0 1.5098l4.7656 4.7656a1.0677 1.0677 0 0 0 1.5098 0 1.0677 1.0677 0 0 0 0-1.5098l-4.7656-4.7656a1.0677 1.0677 0 0 0-0.78516-0.3125z"/>
  <path d="m74.541 78.73a1.0677 1.0677 0 0 0-1.0684 1.0664 1.0677 1.0677 0 0 0 1.0684 1.0684h6.7402a1.0677 1.0677 0 0 0 1.0664-1.0684 1.0677 1.0677 0 0 0-1.0664-1.0664h-6.7402z"/>
  <path d="m81.174 88.641a1.0677 1.0677 0 0 0-0.28516 0.037109l-6.5098 1.7441a1.0677 1.0677 0 0 0-0.75391 1.3086 1.0677 1.0677 0 0 0 1.3066 0.75391l6.5098-1.7441a1.0677 1.0677 0 0 0 0.75586-1.3066 1.0677 1.0677 0 0 0-1.0234-0.79297z"/>
  <path d="m74.678 67.076a1.0677 1.0677 0 0 0-1.0488 0.79102 1.0677 1.0677 0 0 0 0.75391 1.3086l6.5098 1.7441a1.0677 1.0677 0 0 0 1.3086-0.75586 1.0677 1.0677 0 0 0-0.75586-1.3066l-6.5098-1.7441a1.0677 1.0677 0 0 0-0.25781-0.037109z"/>
  <path d="m81.012 97.863a1.0677 1.0677 0 0 0-0.72656 0.3125l-4.7656 4.7656a1.0677 1.0677 0 0 0 0 1.5098 1.0677 1.0677 0 0 0 1.5117 0l4.7656-4.7656a1.0677 1.0677 0 0 0 0-1.5098 1.0677 1.0677 0 0 0-0.78516-0.3125z"/>
  <path d="m100.56 53.492a1.0677 1.0677 0 0 0-1.0684 1.0664v6.7402a1.0677 1.0677 0 0 0 1.0684 1.0684 1.0677 1.0677 0 0 0 1.0664-1.0684v-6.7402a1.0677 1.0677 0 0 0-1.0664-1.0664z"/>
  <path d="m88.908 53.607a1.0677 1.0677 0 0 0-0.28516 0.035156 1.0677 1.0677 0 0 0-0.75391 1.3086l1.7441 6.5098a1.0677 1.0677 0 0 0 1.3086 0.75391 1.0677 1.0677 0 0 0 0.75391-1.3066l-1.7441-6.5098a1.0677 1.0677 0 0 0-1.0234-0.79102z"/>
  <path d="m112.23 53.611a1.0677 1.0677 0 0 0-1.0508 0.79102l-1.7441 6.5098a1.0677 1.0677 0 0 0 0.75586 1.3066 1.0677 1.0677 0 0 0 1.3066-0.75391l1.7441-6.5098a1.0677 1.0677 0 0 0-0.7539-1.3086 1.0677 1.0677 0 0 0-0.25781-0.035156z"/>
  <path d="m76.627 55.227a1.0675 1.0675 0 0 0-0.72461 0.3125 1.0675 1.0675 0 0 0 0 1.5098l4.7656 4.7656a1.0675 1.0675 0 0 0 1.5098 0 1.0675 1.0675 0 0 0 0-1.5098l-4.7656-4.7656a1.0675 1.0675 0 0 0-0.78516-0.3125z"/>
  <rect x="85.563" y="65.681" width="29.108" height="29.109"/>
 </g>
</svg>
