<svg width="200" height="160" xmlns="http://www.w3.org/2000/svg">
    <path d="M118.96 79.605a1.068 1.068 0 0 0-1.068 1.068 1.068 1.068 0 0 0 1.068 1.069h6.74a1.068 1.068 0 0 0 1.069-1.069 1.068 1.068 0 0 0-1.069-1.068h-6.74zM125.59 67.951a1.068 1.068 0 0 0-.283.035l-6.512 1.744a1.068 1.068 0 0 0-.754 1.309 1.068 1.068 0 0 0 1.307.756l6.511-1.746a1.068 1.068 0 0 0 .754-1.307 1.068 1.068 0 0 0-1.023-.791zM119.09 89.516a1.068 1.068 0 0 0-1.05.791 1.068 1.068 0 0 0 .753 1.309l6.512 1.744a1.068 1.068 0 0 0 1.306-.756 1.068 1.068 0 0 0-.753-1.307l-6.512-1.744a1.068 1.068 0 0 0-.256-.037zM123.93 55.709a1.068 1.068 0 0 0-.725.31l-4.765 4.766a1.068 1.068 0 0 0 0 1.512 1.068 1.068 0 0 0 1.51 0l4.765-4.766a1.068 1.068 0 0 0 0-1.511 1.068 1.068 0 0 0-.785-.311zM99.68 98.006a1.068 1.068 0 0 0-1.068 1.068v6.739a1.068 1.068 0 0 0 1.068 1.068 1.068 1.068 0 0 0 1.068-1.068v-6.739a1.068 1.068 0 0 0-1.068-1.068zM109.6 98.121a1.068 1.068 0 0 0-.283.035 1.068 1.068 0 0 0-.754 1.309l1.744 6.51a1.068 1.068 0 0 0 1.307.753 1.068 1.068 0 0 0 .755-1.306l-1.744-6.51a1.068 1.068 0 0 0-1.025-.791zM89.789 98.117a1.068 1.068 0 0 0-1.05.791l-1.745 6.51a1.068 1.068 0 0 0 .756 1.306 1.068 1.068 0 0 0 1.307-.753l1.746-6.51a1.068 1.068 0 0 0-.756-1.309 1.068 1.068 0 0 0-.258-.035zM118.78 98.246a1.068 1.068 0 0 0-.725.313 1.068 1.068 0 0 0 0 1.51l4.766 4.765a1.068 1.068 0 0 0 1.51 0 1.068 1.068 0 0 0 0-1.51l-4.766-4.765a1.068 1.068 0 0 0-.785-.313zM74.541 78.73a1.068 1.068 0 0 0-1.068 1.066 1.068 1.068 0 0 0 1.068 1.069h6.74a1.068 1.068 0 0 0 1.067-1.069 1.068 1.068 0 0 0-1.067-1.066h-6.74zM81.174 88.641a1.068 1.068 0 0 0-.285.037l-6.51 1.744a1.068 1.068 0 0 0-.754 1.309 1.068 1.068 0 0 0 1.307.754l6.51-1.744a1.068 1.068 0 0 0 .755-1.307 1.068 1.068 0 0 0-1.023-.793zM74.678 67.076a1.068 1.068 0 0 0-1.049.791 1.068 1.068 0 0 0 .754 1.309l6.51 1.744a1.068 1.068 0 0 0 1.309-.756 1.068 1.068 0 0 0-.756-1.307l-6.51-1.744a1.068 1.068 0 0 0-.258-.037zM81.012 97.863a1.068 1.068 0 0 0-.727.313l-4.765 4.765a1.068 1.068 0 0 0 0 1.51 1.068 1.068 0 0 0 1.512 0l4.765-4.766a1.068 1.068 0 0 0 0-1.51 1.068 1.068 0 0 0-.785-.312zM100.56 53.492a1.068 1.068 0 0 0-1.068 1.066v6.74a1.068 1.068 0 0 0 1.068 1.069 1.068 1.068 0 0 0 1.066-1.068v-6.74a1.068 1.068 0 0 0-1.066-1.067zM88.908 53.607a1.068 1.068 0 0 0-.285.035 1.068 1.068 0 0 0-.754 1.309l1.744 6.51a1.068 1.068 0 0 0 1.309.753 1.068 1.068 0 0 0 .754-1.306l-1.745-6.51a1.068 1.068 0 0 0-1.023-.791zM112.23 53.611a1.068 1.068 0 0 0-1.05.791l-1.745 6.51a1.068 1.068 0 0 0 .756 1.306 1.068 1.068 0 0 0 1.307-.753l1.744-6.51a1.068 1.068 0 0 0-.754-1.309 1.068 1.068 0 0 0-.258-.035zM76.627 55.227a1.067 1.067 0 0 0-.725.313 1.067 1.067 0 0 0 0 1.51l4.766 4.765a1.067 1.067 0 0 0 1.51 0 1.067 1.067 0 0 0 0-1.51l-4.766-4.766a1.067 1.067 0 0 0-.785-.312zM85.563 65.681h29.108V94.79H85.563z"/>
</svg>
