<svg width="200" height="160" xmlns="http://www.w3.org/2000/svg"><path d="M118.96 79.605a1.068 1.068 0 0 0-1.068 1.068 1.068 1.068 0 0 0 1.068 1.069h6.74a1.068 1.068 0 0 0 1.069-1.069 1.068 1.068 0 0 0-1.069-1.068h-6.74zm6.63-11.654a1.068 1.068 0 0 0-.283.035l-6.512 1.744a1.068 1.068 0 0 0-.754 1.309 1.068 1.068 0 0 0 1.307.756l6.511-1.746a1.068 1.068 0 0 0 .754-1.307 1.068 1.068 0 0 0-1.023-.791zm-6.5 21.565a1.068 1.068 0 0 0-1.05.791 1.068 1.068 0 0 0 .753 1.309l6.512 1.744a1.068 1.068 0 0 0 1.306-.756 1.068 1.068 0 0 0-.753-1.307l-6.512-1.744a1.068 1.068 0 0 0-.256-.037zm4.84-33.807a1.068 1.068 0 0 0-.725.31l-4.765 4.766a1.068 1.068 0 0 0 0 1.512 1.068 1.068 0 0 0 1.51 0l4.765-4.766a1.068 1.068 0 0 0 0-1.511 1.068 1.068 0 0 0-.785-.311zM99.68 98.006a1.068 1.068 0 0 0-1.068 1.068v6.739a1.068 1.068 0 0 0 1.068 1.068 1.068 1.068 0 0 0 1.068-1.068v-6.739a1.068 1.068 0 0 0-1.068-1.068zm9.92.115a1.068 1.068 0 0 0-.283.035 1.068 1.068 0 0 0-.754 1.309l1.744 6.51a1.068 1.068 0 0 0 1.307.753 1.068 1.068 0 0 0 .755-1.306l-1.744-6.51a1.068 1.068 0 0 0-1.025-.791zm-19.811-.004a1.068 1.068 0 0 0-1.05.791l-1.745 6.51a1.068 1.068 0 0 0 .756 1.306 1.068 1.068 0 0 0 1.307-.753l1.746-6.51a1.068 1.068 0 0 0-.756-1.309 1.068 1.068 0 0 0-.258-.035zm28.991.129a1.068 1.068 0 0 0-.725.313 1.068 1.068 0 0 0 0 1.51l4.766 4.765a1.068 1.068 0 0 0 1.51 0 1.068 1.068 0 0 0 0-1.51l-4.766-4.765a1.068 1.068 0 0 0-.785-.313zM74.541 78.73a1.068 1.068 0 0 0-1.068 1.066 1.068 1.068 0 0 0 1.068 1.069h6.74a1.068 1.068 0 0 0 1.067-1.069 1.068 1.068 0 0 0-1.067-1.066h-6.74zm6.633 9.911a1.068 1.068 0 0 0-.285.037l-6.51 1.744a1.068 1.068 0 0 0-.754 1.309 1.068 1.068 0 0 0 1.307.754l6.51-1.744a1.068 1.068 0 0 0 .755-1.307 1.068 1.068 0 0 0-1.023-.793zm-6.496-21.565a1.068 1.068 0 0 0-1.049.791 1.068 1.068 0 0 0 .754 1.309l6.51 1.744a1.068 1.068 0 0 0 1.309-.756 1.068 1.068 0 0 0-.756-1.307l-6.51-1.744a1.068 1.068 0 0 0-.258-.037zm6.334 30.787a1.068 1.068 0 0 0-.727.313l-4.765 4.765a1.068 1.068 0 0 0 0 1.51 1.068 1.068 0 0 0 1.512 0l4.765-4.766a1.068 1.068 0 0 0 0-1.51 1.068 1.068 0 0 0-.785-.312zm19.548-44.371a1.068 1.068 0 0 0-1.068 1.066v6.74a1.068 1.068 0 0 0 1.068 1.069 1.068 1.068 0 0 0 1.066-1.068v-6.74a1.068 1.068 0 0 0-1.066-1.067zm-11.652.115a1.068 1.068 0 0 0-.285.035 1.068 1.068 0 0 0-.754 1.309l1.744 6.51a1.068 1.068 0 0 0 1.309.753 1.068 1.068 0 0 0 .754-1.306l-1.745-6.51a1.068 1.068 0 0 0-1.023-.791zm23.322.004a1.068 1.068 0 0 0-1.05.791l-1.745 6.51a1.068 1.068 0 0 0 .756 1.306 1.068 1.068 0 0 0 1.307-.753l1.744-6.51a1.068 1.068 0 0 0-.754-1.309 1.068 1.068 0 0 0-.258-.035zm-35.603 1.616a1.067 1.067 0 0 0-.725.313 1.067 1.067 0 0 0 0 1.51l4.766 4.765a1.067 1.067 0 0 0 1.51 0 1.067 1.067 0 0 0 0-1.51l-4.766-4.766a1.067 1.067 0 0 0-.785-.312zm8.936 10.454h29.108V94.79H85.563z"/></svg>