<svg width="200" height="160" version="1.1" viewBox="0 0 200 160" xmlns="http://www.w3.org/2000/svg">
 <g>
  <path d="m89.938 59.713v9.2246h6.4688v3.0781c0.24224 0.24447 0.46245 0.5159 0.66406 0.80859 0.9096 1.0269 0.91602 1.7812 0.91602 1.7812 4.5712-2.0833 9.3588-1.6889 10.611 4.8008h2.2461v5.6191c1.7289 0.89891 2.5984 2.3193 2.875 3.7949h5.3281v-29.107h-15.797v4.9746h-6.625v-4.9746zm25.545 5.3672v7.2148h-7.5215v-7.2129z"/>
  <g>
   <path d="m79.343 55.229a1.0677 1.0677 0 0 0-1.0684 1.0664v6.7402a1.0677 1.0677 0 0 0 1.0684 1.0684 1.0677 1.0677 0 0 0 1.0664-1.0684v-6.7402a1.0677 1.0677 0 0 0-1.0664-1.0664z"
         dominant-baseline="auto" solid-color="#000000" stop-color="#000000" />
   <path d="m75.972 58.598a1.0677 1.0677 0 0 0-1.0664 1.0684 1.0677 1.0677 0 0 0 1.0664 1.0664h6.7402a1.0677 1.0677 0 0 0 1.0684-1.0664 1.0677 1.0677 0 0 0-1.0684-1.0684z"
         dominant-baseline="auto" solid-color="#000000" stop-color="#000000" />
   <path d="m115.42 97.015a1.0677 1.0677 0 0 0-1.0684 1.0684 1.0677 1.0677 0 0 0 1.0684 1.0684h6.7402a1.0677 1.0677 0 0 0 1.0684-1.0684 1.0677 1.0677 0 0 0-1.0684-1.0684z"
         dominant-baseline="auto" solid-color="#000000" stop-color="#000000" />
   <path d="m118.79 93.646a1.0677 1.0677 0 0 0-1.0664 1.0684v6.7383a1.0677 1.0677 0 0 0 1.0664 1.0684 1.0677 1.0677 0 0 0 1.0684-1.0684v-6.7383a1.0677 1.0677 0 0 0-1.0684-1.0684z"
         dominant-baseline="auto" solid-color="#000000" stop-color="#000000" />
  </g>
  <path d="m91.104 71.066c-1.1528-0.01129-2.3479 0.19839-3.4434 0.61524-2.1909 0.83369-3.8886 2.4144-4.3047 4.4219-0.41608 2.0074 0.34439 4.7108 3.793 8.0312a1.071 1.071 0 0 1 0.0293 1.5137 1.071 1.071 0 0 1-1.5137 0.0293c-1.2149-1.1697-2.1466-2.3208-2.8555-3.4453-4.7346-1.035-7.5122 0.63769-8.7578 3.0234-1.2206 2.3379-0.85898 5.4819 1.291 7.7988h36.109c0.84689-0.74667 1.5903-2.6029 1.1738-4.2891-0.41806-1.6926-1.724-3.2474-5.1953-3.5625-0.95461 1.2047-2.2927 2.1692-4.041 2.6699a1.071 1.071 0 0 1-1.3242-0.73438 1.071 1.071 0 0 1 0.73438-1.3242c1.4086-0.40342 2.4445-1.1778 3.1465-2.1387a1.071 1.071 0 0 1 0.2461-0.36523c1e-3 -2e-3 3e-3 -0.0039 4e-3 -0.0059 0.92582-1.506 1.1077-3.3797 0.65625-5.0039-0.3953-1.4223-1.2601-2.5773-2.5371-3.1543-1.2102-0.54682-2.8829-0.61578-5.123 0.33008 0.12671 0.75629 0.18427 1.5621 0.12695 2.4375a1.071 1.071 0 0 1-1.1387 0.99805 1.071 1.071 0 0 1-0.99805-1.1387c0.21826-3.3336-1.0422-5.0613-2.8906-5.9961-0.92423-0.46739-2.0347-0.69965-3.1875-0.71094z" stroke-width="0"/>
  <g>
   <path d="m80.875 96.59a1.071 1.071 0 0 0-0.90234 0.49609l-2.4551 3.8555a1.071 1.071 0 0 0 0.32812 1.4785 1.071 1.071 0 0 0 1.4785-0.32812l2.4551-3.8555a1.071 1.071 0 0 0-0.32617-1.4785 1.071 1.071 0 0 0-0.57812-0.16797z"
         dominant-baseline="auto" solid-color="#000000" stop-color="#000000" />
   <path d="m94.133 96.59a1.071 1.071 0 0 0-0.90039 0.49609l-2.457 3.8555a1.071 1.071 0 0 0 0.32812 1.4785 1.071 1.071 0 0 0 1.4785-0.32812l2.457-3.8555a1.071 1.071 0 0 0-0.32812-1.4785 1.071 1.071 0 0 0-0.57813-0.16797z"
         dominant-baseline="auto" solid-color="#000000" stop-color="#000000" />
   <path d="m107.39 96.59a1.071 1.071 0 0 0-0.90039 0.49609l-2.4551 3.8555a1.071 1.071 0 0 0 0.32812 1.4785 1.071 1.071 0 0 0 1.4785-0.32812l2.4551-3.8555a1.071 1.071 0 0 0-0.32813-1.4785 1.071 1.071 0 0 0-0.57813-0.16797z"
         dominant-baseline="auto" solid-color="#000000" stop-color="#000000" />
   <path d="m86.178 104.54a1.071 1.071 0 0 0-0.90039 0.49414l-2.457 3.8555a1.071 1.071 0 0 0 0.32813 1.4805 1.071 1.071 0 0 0 1.4785-0.32812l2.457-3.8555a1.071 1.071 0 0 0-0.32812-1.4785 1.071 1.071 0 0 0-0.57812-0.16797z"
         dominant-baseline="auto" solid-color="#000000" stop-color="#000000" />
   <path d="m99.438 104.54a1.071 1.071 0 0 0-0.90234 0.49414l-2.4551 3.8555a1.071 1.071 0 0 0 0.32812 1.4805 1.071 1.071 0 0 0 1.4785-0.32812l2.4551-3.8555a1.071 1.071 0 0 0-0.32813-1.4785 1.071 1.071 0 0 0-0.57617-0.16797z"
         dominant-baseline="auto" solid-color="#000000" stop-color="#000000" />
  </g>
 </g>
</svg>
