<svg width="304.76" height="304.6" version="1.0" viewBox="0 0 228.57 228.45" xmlns="http://www.w3.org/2000/svg"><path d="M16.682 0A15.46 15.46 0 0 0 5.719 4.556L4.554 5.72a15.47 15.47 0 0 0 0 21.924l86.578 86.578L4.554 200.8a15.47 15.47 0 0 0 0 21.924l1.165 1.165a15.46 15.46 0 0 0 10.963 4.556 15.45 15.45 0 0 0 10.96-4.556l86.646-86.644 86.643 86.644a15.468 15.468 0 0 0 21.923 0l1.165-1.165a15.47 15.47 0 0 0 0-21.924l-86.578-86.578 86.578-86.578a15.47 15.47 0 0 0 0-21.924l-1.165-1.164a15.468 15.468 0 0 0-21.923 0L114.288 91.2 27.642 4.556A15.45 15.45 0 0 0 16.682 0z"/></svg>