<svg xmlns="http://www.w3.org/2000/svg" xml:space="preserve" width="358.44" height="355.373"><path d="M252.36.995a11.212 11.212 0 0 1 6.655 8.25l13.796 74.802 74.802 13.727a11.212 11.212 0 0 1 8.25 6.655c1.456 3.467 1.04 7.418-1.109 10.538l-43.19 62.67 43.19 62.602c2.15 3.12 2.565 7.071 1.11 10.537a11.212 11.212 0 0 1-8.25 6.656l-74.803 13.796-13.796 74.802a11.212 11.212 0 0 1-6.656 8.25c-3.466 1.456-7.417 1.04-10.537-1.109l-62.601-43.19-62.602 43.19c-3.12 2.15-7.071 2.565-10.537 1.11a11.212 11.212 0 0 1-6.656-8.25L85.63 271.227l-74.802-13.796a11.212 11.212 0 0 1-8.25-6.656c-1.456-3.466-1.04-7.417 1.11-10.537l43.19-62.601-43.19-62.602c-2.15-3.12-2.566-7.071-1.11-10.537a11.212 11.212 0 0 1 8.25-6.656L85.63 84.047 99.426 9.245a11.212 11.212 0 0 1 6.656-8.25c3.466-1.456 7.418-1.04 10.537 1.11l62.602 43.19 62.6-43.19c3.12-2.15 7.072-2.566 10.538-1.11zM112.667 177.638c0-36.757 29.796-66.553 66.553-66.553 36.756 0 66.553 29.796 66.553 66.553 0 36.756-29.797 66.553-66.553 66.553-36.757 0-66.553-29.797-66.553-66.553zm155.29 0c0-49.008-39.73-88.738-88.737-88.738-49.008 0-88.738 39.73-88.738 88.738s39.73 88.737 88.738 88.737 88.737-39.73 88.737-88.737z"/></svg>