<svg width="312.613" height="330.373" version="1.0" viewBox="0 0 234.46 247.78" xmlns="http://www.w3.org/2000/svg"><path d="m130.947 2.453 100.256 70.392c4.44 3.118 4.327 7.968-.254 10.876l-111.155 70.56c-4.58 2.908-11.842 2.739-16.282-.379L3.257 83.51c-4.44-3.117-4.327-7.968.253-10.875l111.155-70.56c4.58-2.908 11.842-2.74 16.282.378z"/><path d="M217.846 154.897 119.79 217.14c-4.58 2.907-11.843 2.738-16.283-.38l-86.895-61.013-13.104 8.317c-4.58 2.908-4.693 7.757-.253 10.875l100.252 70.393c4.44 3.117 11.703 3.285 16.284.378l111.157-70.559c4.58-2.907 4.694-7.759.254-10.876z"/><path d="m217.846 109.185-98.048 62.24c-4.58 2.908-11.843 2.739-16.283-.378L16.62 110.033 3.517 118.35c-4.58 2.908-4.694 7.759-.254 10.877l100.253 70.39c4.44 3.118 11.703 3.288 16.283.38l111.158-70.56c4.58-2.907 4.693-7.757.253-10.875z"/></svg>