<svg width="234.46pt" height="247.78pt" version="1.0" viewBox="0 0 234.46 247.78" xmlns="http://www.w3.org/2000/svg">
 <g transform="translate(-1.4842 -5.1001)" display="none" opacity=".4359">
  <g transform="matrix(.1 0 0 -.1 -19.302 274)">
   <path d="m1304 2698c-321.74-212.65-570.07-398.86-864-593-172-113-230-164-229-199 0-14 19-33 59-59 352.4-243.98 654.58-453.83 965-670 147-103 153-103 300 0 330.8 235.85 579.68 395.95 889 619 66 46 124 85 129 87 17 5-1 54-31 84-140.63 113.6-280.58 189.5-432 303-160.81 119.08-316.82 207.69-480 330-83 63-207 140-225 140-6 0-42-19-81-42z"/>
   <path d="m316.49 1122.3c-38.242-24.263-66.495-49.263-106.49-99.263-35-44-33.508-49.018 179.49-190.02 161.84-106.35 381.68-279.63 530.51-377.98 91-60 199-134 240-165 203.21-141.79 207-140 225-140s33.914 3.2589 225 140c41 31 149 105 240 165s190 128 221 151c30 23 140 99 244 169 164.73 121.85 202.25 148.6 245 192 13 16 13 40 0 56-59 73-140 130-170 119-321.31-201.8-453.83-311.32-816.06-555.46-122.9-90.805-120.43-94.286-179.87-94.119-51.23 0.73595-51.001-0.554-131.07 54.576-126.79 87.301-453 309-703 478-196.49 127.83-192.93 135.29-243.51 97.263z"/>
  </g>
  <path d="m12.348 114.09c-3.8242 2.4263-6.6495 4.9263-10.649 9.9263-3.5 4.4-3.3508 4.9018 17.949 19.002 16.184 10.635 38.168 27.963 53.051 37.798 9.1 6 19.9 13.4 24 16.5 20.321 14.179 20.7 14 22.5 14s3.3914-0.32589 22.5-14c4.1-3.1 14.9-10.5 24-16.5 9.1-6 19-12.8 22.1-15.1 3-2.3 14-9.9 24.4-16.9 16.473-12.185 20.225-14.86 24.5-19.2 1.3-1.6 1.3-4 0-5.6-5.9-7.3-14-13-17-11.9-32.131 20.18-45.383 31.132-81.606 55.546-12.29 9.0805-12.043 9.4286-17.987 9.4119-5.123-0.0736-5.1001 0.0554-13.107-5.4576-12.679-8.7301-45.3-30.9-70.3-47.8-19.649-12.783-19.293-13.529-24.351-9.7263z" stroke-width=".1"/>
 </g>
 <g transform="translate(-1.4842 -5.1001)">
  <path transform="matrix(.81841 .57463 -.84426 .53593 0 0)" d="m83.736-75.689h122.5c5.4252 0 9.7928 4.3676 9.7928 9.7928v131.66c0 5.4252-4.3676 9.7928-9.7928 9.7928h-122.5c-5.4252 0-9.7928-4.3676-9.7928-9.7928v-131.66c0-5.4252 4.3676-9.7928 9.7928-9.7928z" style="paint-order:fill markers stroke"/>
  <path transform="scale(.75)" d="m292.44 213.33-130.74 82.99c-6.1071 3.8767-15.791 3.6508-21.711-0.50586l-115.86-81.352-17.471 11.09c-6.1071 3.8767-6.258 10.343-0.33789 14.5l133.67 93.857c5.9201 4.1567 15.604 4.3806 21.711 0.50391l148.21-94.078c6.1071-3.8767 6.258-10.345 0.33789-14.502z" style="paint-order:fill markers stroke"/>
  <path transform="scale(.75)" d="m292.44 152.38-130.73 82.988c-6.1071 3.8767-15.791 3.6508-21.711-0.50585l-115.86-81.352-17.471 11.09c-6.1071 3.8767-6.258 10.345-0.33789 14.502l133.67 93.855c5.9201 4.1567 15.604 4.3826 21.711 0.50586l148.21-94.08c6.1071-3.8767 6.258-10.343 0.33789-14.5z" style="paint-order:fill markers stroke"/>
 </g>
</svg>
