<svg width="280.36pt" height="280.36pt" version="1.0" viewBox="0 0 280.36 280.36" xmlns="http://www.w3.org/2000/svg">
 <g transform="translate(-2.1078 -.44417)" display="none" opacity=".39355" style="mix-blend-mode:normal">
  <g transform="matrix(.1 0 0 -.1 -1.2664 284)">
   <path d="m2268 2793c-129.4-120.47-255.09-244.29-358-343-417-399-408-389-395-460 8-41 26-76 78-147 20-29 37-58 37-65 0-12-96-106-451-445-87-83-109-95-138-69-41 35-135 76-178 76-44 0-68-16-168-115-11-11-139-135-285-274-417-400-409-391-391-472 21-94 177-283 301-364 108-72 159-95 207-95 44 0 68 16 168 115 11 11 139 135 285 275 417 399 408 389 395 460-8 41-26 76-77 147-21 29-38 58-38 65 0 12 96 106 451 446 87 82 109 94 138 68 41-35 135-76 178-76 44 0 68 16 168 115 11 11 133 128 270 260 138 132 283 272 323 312 71.696 68.453 78.039 68.992 80.636 139.67 0.4643 66.131-2.7476 64.888-21.636 98.334-116 195-360 395-484 395-38 0-50-6-95-47zm203-162c41-27 97-73 125-102 56-59 124-152 124-170 0-7-15-26-33-43-17-17-149-143-292-281-143-137-285-274-315-302-30-29-62-53-70-53-26 0-80 39-80 58 0 10 15 33 34 51s42 51 52 72c22.424 53.049-10.086 98.981-27.429 111.71-20.983 15.405-60.028 30.376-94.571 13.286-20-9-58-35-85-58-27-22-54-38-62-35-16 6-77 92-77 109 0 6 15 25 33 42 17 17 149 144 292 281 143 138 285 274 315 302 30 29 62 53 71 53s50-22 90-49zm-1552-1465c15-8 33-22 41-31 11-13 9-20-12-43-68-73-77-130-30-175 44-42 95-38 156 13 27 23 56 40 64 38 18-3 80-86 81-107 1-8-14-28-32-45-204.92-195.85-375.99-363.65-592-569-38-37-77-67-86-67-27 0-160 94-215 151-56 59-124 152-124 170 0 7 15 26 33 43 211.51 201.63 383.24 373.31 607 583 60 57 67 60 109 39z"/>
  </g>
 </g>
 <g transform="translate(-2.1078 -.44417)" display="none">
  <g transform="matrix(.070711 .070711 .070711 -.070711 -26.701 114.39)" opacity=".39355" style="mix-blend-mode:normal">
   <path d="m2268 2793c-129.4-120.47-255.09-244.29-358-343-417-399-408-389-395-460 8-41 26-76 78-147 20-29 37-58 37-65 0-12-96-106-451-445-87-83-109-95-138-69-41 35-135 76-178 76-44 0-68-16-168-115-11-11-139-135-285-274-417-400-409-391-391-472 21-94 177-283 301-364 108-72 159-95 207-95 44 0 68 16 168 115 11 11 139 135 285 275 417 399 408 389 395 460-8 41-26 76-77 147-21 29-38 58-38 65 0 12 96 106 451 446 87 82 109 94 138 68 41-35 135-76 178-76 44 0 68 16 168 115 11 11 133 128 270 260 138 132 283 272 323 312 71.696 68.453 78.039 68.992 80.636 139.67 0.4643 66.131-2.7476 64.888-21.636 98.334-116 195-360 395-484 395-38 0-50-6-95-47zm203-162c41-27 97-73 125-102 56-59 124-152 124-170 0-7-15-26-33-43-17-17-149-143-292-281-143-137-285-274-315-302-30-29-62-53-70-53-26 0-80 39-80 58 0 10 15 33 34 51s42 51 52 72c22.424 53.049-10.086 98.981-27.429 111.71-20.983 15.405-60.028 30.376-94.571 13.286-20-9-58-35-85-58-27-22-54-38-62-35-16 6-77 92-77 109 0 6 15 25 33 42 17 17 149 144 292 281 143 138 285 274 315 302 30 29 62 53 71 53s50-22 90-49zm-1552-1465c15-8 33-22 41-31 11-13 9-20-12-43-68-73-77-130-30-175 44-42 95-38 156 13 27 23 56 40 64 38 18-3 80-86 81-107 1-8-14-28-32-45-204.92-195.85-375.99-363.65-592-569-38-37-77-67-86-67-27 0-160 94-215 151-56 59-124 152-124 170 0 7 15 26 33 43 211.51 201.63 383.24 373.31 607 583 60 57 67 60 109 39z"/>
  </g>
 </g>
 <g transform="translate(-2.1078 -.44417)">
  <path transform="rotate(-45)" d="m-150.82 159.42c-7.1797 0-11.594 5.2988-13.926 10.1s-3.4121 10.374-3.4121 16.469v28.111c0 6.0944 1.0806 11.668 3.4121 16.469 2.3315 4.8008 6.746 10.102 13.926 10.102h104c7.1797 0 11.596-5.3008 13.928-10.102 2.3315-4.8008 3.4121-10.374 3.4121-16.469v-28.111c0-6.0944-1.0806-11.668-3.4121-16.469s-6.748-10.1-13.928-10.1zm1.7754 17.25h100.45c0.07738 0.12241-0.0062-8e-3 0.18555 0.38672 0.81875 1.6859 1.6797 5.0853 1.6797 8.9316v28.111c0 3.8464-0.86094 7.2457-1.6797 8.9316-0.19258 0.39654-0.10839 0.26665-0.18555 0.38867h-100.45c-0.0771-0.12193 7e-3 8e-3 -0.18554-0.38867-0.81875-1.6859-1.6797-5.0853-1.6797-8.9316v-28.111c0-3.8464 0.86094-7.2458 1.6797-8.9316 0.19159-0.39451 0.10615-0.26421 0.18359-0.38672z" color-rendering="auto" dominant-baseline="auto" image-rendering="auto" shape-rendering="auto" solid-color="#000000" stop-color="#000000" style="font-feature-settings:normal;font-variant-alternates:normal;font-variant-caps:normal;font-variant-east-asian:normal;font-variant-ligatures:normal;font-variant-numeric:normal;font-variant-position:normal;font-variation-settings:normal;inline-size:0;isolation:auto;mix-blend-mode:normal;paint-order:fill markers stroke;shape-margin:0;shape-padding:0;text-decoration-color:#000000;text-decoration-line:none;text-decoration-style:solid;text-indent:0;text-orientation:mixed;text-transform:none;white-space:normal"/>
  <rect transform="rotate(-45)" x="-65.152" y="188.7" width="132.66" height="22.687" rx="9.52" ry="6.3606" style="paint-order:fill markers stroke"/>
  <path transform="rotate(-45)" d="m49.176 159.42c-7.1797 0-11.594 5.2988-13.926 10.1s-3.4121 10.374-3.4121 16.469v28.111c0 6.0944 1.0806 11.668 3.4121 16.469s6.746 10.102 13.926 10.102h104c7.1798 0 11.596-5.3008 13.928-10.102 2.3315-4.8008 3.4121-10.374 3.4121-16.469v-28.111c0-6.0944-1.0806-11.668-3.4121-16.469-2.3315-4.8008-6.748-10.1-13.928-10.1zm1.7773 17.25h100.45c0.0774 0.12241-6e-3 -8e-3 0.18555 0.38672 0.81874 1.6859 1.6797 5.0853 1.6797 8.9316v28.111c0 3.8464-0.86094 7.2457-1.6797 8.9316-0.19258 0.39654-0.10839 0.26665-0.18555 0.38867h-100.45c-0.07715-0.12202 7e-3 8e-3 -0.18555-0.38867-0.81875-1.6859-1.6797-5.0853-1.6797-8.9316v-28.111c0-3.8464 0.86094-7.2458 1.6797-8.9316 0.19179-0.39492 0.10816-0.26431 0.18555-0.38672z" color-rendering="auto" dominant-baseline="auto" image-rendering="auto" shape-rendering="auto" solid-color="#000000" stop-color="#000000" style="font-feature-settings:normal;font-variant-alternates:normal;font-variant-caps:normal;font-variant-east-asian:normal;font-variant-ligatures:normal;font-variant-numeric:normal;font-variant-position:normal;font-variation-settings:normal;inline-size:0;isolation:auto;mix-blend-mode:normal;paint-order:fill markers stroke;shape-margin:0;shape-padding:0;text-decoration-color:#000000;text-decoration-line:none;text-decoration-style:solid;text-indent:0;text-orientation:mixed;text-transform:none;white-space:normal"/>
 </g>
</svg>
