<svg width="269.4pt" height="271.84pt" version="1.0" viewBox="0 0 269.4 271.84" xmlns="http://www.w3.org/2000/svg">
    <g transform="translate(-11.786 -6.1039)" stroke-linecap="round" stroke-linejoin="round">
        <path d="m122.56 92.605c-13.432 0-26.865 5.1194-37.01 15.357l-58.551 59.088c-20.29 20.476-20.29 53.87 0 74.346l21.008 21.201c20.29 20.476 53.704 20.448 74.006 0.0117l38.221-38.473a13.5 13.5 0 0 0-0.0644-19.092 13.5 13.5 0 0 0-19.092 0.0625l-38.219 38.473c-10.118 10.185-25.583 10.195-35.674 0.0117l-21.006-21.199c-10.091-10.183-10.091-26.155 0-36.338l58.551-59.086c10.091-10.183 25.569-10.183 35.66 0l10.994 11.094a13.5 13.5 0 0 0 19.092 0.0859 13.5 13.5 0 0 0 0.0859-19.092l-10.992-11.094c-10.145-10.238-23.578-15.357-37.01-15.357z"
              style="-inkscape-stroke:none"/>
        <path d="m207.96 6.1035c-13.428 0.00198-26.857 5.1179-37.008 15.336l-38.219 38.473a13.5 13.5 0 0 0 0.0625 19.092 13.5 13.5 0 0 0 19.092-0.0625l38.219-38.473c10.118-10.185 25.583-10.195 35.674-0.01172l21.008 21.199c10.091 10.183 10.091 26.155 0 36.338l-58.551 59.088c-10.091 10.183-25.571 10.183-35.662 0l-10.992-11.094a13.5 13.5 0 0 0-19.092-0.0879 13.5 13.5 0 0 0-0.0879 19.092l10.994 11.094c20.29 20.476 53.727 20.476 74.018 0l58.551-59.088c20.29-20.476 20.29-53.87 0-74.346l-21.008-21.201c-10.145-10.238-23.57-15.35-36.998-15.348z"
              style="-inkscape-stroke:none"/>
    </g>
</svg>
