<svg width="359.2" height="362.453" version="1.0" viewBox="0 0 269.4 271.84" xmlns="http://www.w3.org/2000/svg"><path d="M110.774 86.501c-13.432 0-26.865 5.12-37.01 15.357l-58.551 59.088c-20.29 20.476-20.29 53.87 0 74.346l21.008 21.201c20.29 20.476 53.704 20.448 74.006.012l38.221-38.473a13.5 13.5 0 0 0-.064-19.092 13.5 13.5 0 0 0-19.092.062l-38.22 38.473c-10.117 10.185-25.582 10.195-35.673.012l-21.006-21.199c-10.091-10.183-10.091-26.155 0-36.338l58.55-59.086c10.092-10.183 25.57-10.183 35.66 0l10.995 11.094a13.5 13.5 0 0 0 19.092.086 13.5 13.5 0 0 0 .086-19.092l-10.992-11.094C137.639 91.62 124.206 86.5 110.774 86.5z"/><path d="M196.174 0c-13.428.002-26.857 5.117-37.008 15.336l-38.219 38.473a13.5 13.5 0 0 0 .063 19.092 13.5 13.5 0 0 0 19.091-.063l38.22-38.473c10.117-10.185 25.582-10.195 35.673-.012l21.008 21.2c10.091 10.182 10.091 26.154 0 36.337l-58.55 59.088c-10.091 10.183-25.571 10.183-35.662 0l-10.992-11.094a13.5 13.5 0 0 0-19.092-.088 13.5 13.5 0 0 0-.088 19.092l10.994 11.094c20.29 20.476 53.727 20.476 74.018 0l58.55-59.088c20.29-20.476 20.29-53.87 0-74.346l-21.007-21.2c-10.145-10.24-23.57-15.351-36.998-15.35z"/></svg>