<svg width="375.12" height="369.507" version="1.0" viewBox="0 0 281.34 277.13" xmlns="http://www.w3.org/2000/svg"><g stroke-linecap="round"><path d="M117.345 0c-15.437 0-28.178 12.74-28.178 28.176v87.008h20V28.176c0-4.702 3.476-8.175 8.178-8.175h135.817c4.703 0 8.177 3.473 8.177 8.175v220.778c0 4.702-3.474 8.176-8.176 8.176H117.344c-4.702 0-8.178-3.474-8.178-8.176V167.24h-20v81.712c0 15.437 12.742 28.178 28.178 28.178h135.817c15.437 0 28.176-12.741 28.176-28.178V28.176C281.339 12.74 268.6 0 253.163 0z"/><path d="M63.024 77.933a12.5 12.5 0 0 1 8.848 3.643 12.5 12.5 0 0 1 .04 17.678l-29.329 29.457h156.39a12.5 12.5 0 0 1 12.5 12.501 12.5 12.5 0 0 1-12.5 12.5H42.583l29.328 29.457a12.5 12.5 0 0 1-.04 17.678 12.5 12.5 0 0 1-17.677-.038L3.642 150.032a12.501 12.501 0 0 1 0-17.64l50.552-50.774a12.5 12.5 0 0 1 8.83-3.683z"/></g></svg>