<svg width="270.3pt" height="272.41pt" version="1.0" viewBox="0 0 270.3 272.41" xmlns="http://www.w3.org/2000/svg">
 <g transform="matrix(.1 0 0 -.1 -8 280.43)">
  <path d="m119 2787-34-23-3-1146-2-1146c290.91-147.99 557.31-262 823-376 28-12 43-13 58-6 19 11 19 31 19 1170v1158l-24 29c-23 27-49 42-126 75-203.02 89.762-406.93 175.1-580 251-87 39-93 39-131 14zm458.25-1389.4c150.42 2.5182 250.36-80.813 252.75-252.6-5.7224-93.721-32.933-186.55-80-265-8-13-33-67-113-241-44.409-97.571-59.715-96.961-107-19-18.272 35.286-32.173 68.68-44 98-15 35-42 97-62 138-40.09 94.437-102.77 191.9-104 290 0 177.77 118.97 251.6 257.25 251.6z"/>
  <path d="m468.84 1147.4c0-88.275 44.669-107.4 106.16-107.4 77.942-1.711 105 42.216 105 106 0 75.14-55.344 103.21-99.691 103.34-66.516 0-111.47-33.164-111.47-101.94z"/>
  <path d="m1800 2743c-183.43-82.847-376.98-172.5-540-245-69.472-28.425-120.28-83.594-122-103l4-1140c3-627 8-1148 12-1157 10-22 57-24 94-4 333.89 152.29 341.41 155.82 617 282l40 21 8 1147c5 631 6 1158 3 1171-7 27-32 55-49 55-7-1-37-12-67-27zm-282.14-412.75c165.54 0 242.14-99.151 242.14-255.25 1.2323-86.36-22.921-126.75-80-265-8-13-33-67-113-241-47.043-96.445-61.623-99.912-117.99 9.6517-80.407 176.15-56.867 128.7-95.011 207.35-40.694 94.49-101.62 190.13-104 290 0 209.06 166.83 254.01 267.86 254.25z"/>
  <path d="m2104 2756c-19-14-19-39-22-1168-1-634 0-1163 3-1174 3-13 25-32 52-47 160.59-88.098 325.15-172.7 465-250 83-45 115-47 153-7l28 29-7 793c1.25 1110.2 6.8761 1464.7 0.8761 1483.7-7 22-46.876 38.303-181.88 109.3-136.16 71.774-285.79 155.06-403 216-62 33-62 34-88 15z"/>
 </g>
 <path d="m131.99 72.631c0 8.8275 4.4669 10.74 10.616 10.74 7.7942 0.1711 10.5-4.2216 10.5-10.6 0-7.514-5.5344-10.321-9.9691-10.334-6.6516 0-11.147 3.3164-11.147 10.194z" stroke-width=".1"/>
 <g transform="matrix(.1 0 0 -.1 -8 280.43)">
  <path d="m119 2787-34-23-3-1146-2-1146c290.91-147.99 557.31-262 823-376 28-12 43-13 58-6 19 11 19 31 19 1170v1158l-24 29c-23 27-49 42-126 75-203.02 89.762-406.93 175.1-580 251-87 39-93 39-131 14zm458.25-1389.4c150.42 2.5182 250.36-80.813 252.75-252.6-5.7224-93.721-32.933-186.55-80-265-8-13-33-67-113-241-44.409-97.571-59.715-96.961-107-19-18.272 35.286-32.173 68.68-44 98-15 35-42 97-62 138-40.09 94.437-102.77 191.9-104 290 0 177.77 118.97 251.6 257.25 251.6z"/>
  <path d="m468.84 1147.4c0-88.275 44.669-107.4 106.16-107.4 77.942-1.711 105 42.216 105 106 0 75.14-55.344 103.21-99.691 103.34-66.516 0-111.47-33.164-111.47-101.94z"/>
  <path d="m1800 2743c-183.43-82.847-376.98-172.5-540-245-69.472-28.425-120.28-83.594-122-103l4-1140c3-627 8-1148 12-1157 10-22 57-24 94-4 333.89 152.29 341.41 155.82 617 282l40 21 8 1147c5 631 6 1158 3 1171-7 27-32 55-49 55-7-1-37-12-67-27zm-282.14-412.75c165.54 0 242.14-99.151 242.14-255.25 1.2323-86.36-22.921-126.75-80-265-8-13-33-67-113-241-47.043-96.445-61.623-99.912-117.99 9.6517-80.407 176.15-56.867 128.7-95.011 207.35-40.694 94.49-101.62 190.13-104 290 0 209.06 166.83 254.01 267.86 254.25z"/>
  <path d="m2104 2756c-19-14-19-39-22-1168-1-634 0-1163 3-1174 3-13 25-32 52-47 160.59-88.098 325.15-172.7 465-250 83-45 115-47 153-7l28 29-7 793c1.25 1110.2 6.8761 1464.7 0.8761 1483.7-7 22-46.876 38.303-181.88 109.3-136.16 71.774-285.79 155.06-403 216-62 33-62 34-88 15z"/>
 </g>
</svg>
