<?xml version="1.0" encoding="UTF-8" standalone="no"?>
<svg
   xmlns:dc="http://purl.org/dc/elements/1.1/"
   xmlns:cc="http://creativecommons.org/ns#"
   xmlns:rdf="http://www.w3.org/1999/02/22-rdf-syntax-ns#"
   xmlns:svg="http://www.w3.org/2000/svg"
   xmlns="http://www.w3.org/2000/svg"
   xmlns:sodipodi="http://sodipodi.sourceforge.net/DTD/sodipodi-0.dtd"
   xmlns:inkscape="http://www.inkscape.org/namespaces/inkscape"
   inkscape:version="1.0 (4035a4fb49, 2020-05-01)"
   sodipodi:docname="zhLDATw1to.svg"
   id="svg16"
   preserveAspectRatio="xMidYMid meet"
   viewBox="0 0 270.29999 272.41196"
   height="272.41196pt"
   width="270.29999pt"
   version="1.0">
  <defs
     id="defs20" />
  <sodipodi:namedview
     inkscape:current-layer="svg16"
     inkscape:window-maximized="1"
     inkscape:window-y="-8"
     inkscape:window-x="-8"
     inkscape:cy="178.54564"
     inkscape:cx="86.101104"
     inkscape:zoom="2.8284271"
     showgrid="false"
     id="namedview18"
     inkscape:window-height="1377"
     inkscape:window-width="2560"
     inkscape:pageshadow="2"
     inkscape:pageopacity="0"
     guidetolerance="10"
     gridtolerance="10"
     objecttolerance="10"
     borderopacity="1"
     bordercolor="#666666"
     pagecolor="#ffffff" />
  <metadata
     id="metadata2">
Created by potrace 1.10, written by Peter Selinger 2001-2011
<rdf:RDF>
  <cc:Work
     rdf:about="">
    <dc:format>image/svg+xml</dc:format>
    <dc:type
       rdf:resource="http://purl.org/dc/dcmitype/StillImage" />
  </cc:Work>
</rdf:RDF>
</metadata>
  <g
     id="g14"
     stroke="none"
     fill="#000000"
     transform="matrix(0.1,0,0,-0.1,-8,280.42894)">
    <path
       sodipodi:nodetypes="ccccccscccccccccccccc"
       id="path4"
       d="M 119,2787 85,2764 82,1618 80,472 C 370.90939,324.01108 637.3133,210.00346 903,96 c 28,-12 43,-13 58,-6 19,11 19,31 19,1170 v 1158 l -24,29 c -23,27 -49,42 -126,75 -203.02451,89.7621 -406.92874,175.0979 -580,251 -87,39 -93,39 -131,14 z M 577.24855,1397.5953 C 727.66744,1400.1135 827.61319,1316.7823 830,1145 824.27759,1051.2786 797.0666,958.44919 750,880 742,867 717,813 637,639 592.59094,541.42851 577.28479,542.03863 530,620 c -18.27165,35.28647 -32.17283,68.67982 -44,98 -15,35 -42,97 -62,138 -40.09008,94.43703 -102.77263,191.8964 -104,290 0,177.7673 118.97445,251.5953 257.24855,251.5953 z" />
    <path
       sodipodi:nodetypes="ccccc"
       id="path6"
       d="M 468.83748,1147.3998 C 468.83748,1059.1248 513.50675,1040 575,1040 c 77.94244,-1.711 105,42.2161 105,106 0,75.1395 -55.34378,103.2071 -99.69107,103.3371 -66.5165,0 -111.47145,-33.1638 -111.47145,-101.9373 z" />
    <path
       sodipodi:nodetypes="cccccccccccccccccccc"
       id="path8"
       d="m 1800,2743 c -183.4327,-82.8466 -376.9795,-172.5019 -540,-245 -69.472,-28.4246 -120.282,-83.5935 -122,-103 l 4,-1140 c 3,-627 8,-1148 12,-1157 10,-22 57,-24 94,-4 333.8908,152.289 341.4118,155.81576 617,282 l 40,21 8,1147 c 5,631 6,1158 3,1171 -7,27 -32,55 -49,55 -7,-1 -37,-12 -67,-27 z m -282.1449,-412.753 c 165.535,0 242.1449,-99.1509 242.1449,-255.247 1.2323,-86.3595 -22.9209,-126.7502 -80,-265 -8,-13 -33,-67 -113,-241 -47.043,-96.4447 -61.6227,-99.9116 -117.9887,9.6517 -80.4067,176.1489 -56.8669,128.6956 -95.0113,207.3483 -40.6936,94.4898 -101.6162,190.1254 -104,290 0,209.0581 166.826,254.0118 267.8551,254.247 z" />
    <path
       sodipodi:nodetypes="cccccccccccc"
       id="path12"
       d="m 2104,2756 c -19,-14 -19,-39 -22,-1168 -1,-634 0,-1163 3,-1174 3,-13 25,-32 52,-47 160.5871,-88.09833 325.1528,-172.69695 465,-250 83,-45 115,-47 153,-7 l 28,29 -7,793 c 1.25,1110.1875 6.8761,1464.6967 0.8761,1483.6967 -7,22 -46.8761,38.3033 -181.8761,109.3033 -136.1595,71.7736 -285.7922,155.059 -403,216 -62,33 -62,34 -88,15 z" />
  </g>
  <path
     style="stroke-width:0.0999997"
     d="m 131.98927,72.630982 c 0,8.827499 4.46693,10.73998 10.61625,10.73998 7.79425,0.171099 10.5,-4.221611 10.5,-10.6 0,-7.51395 -5.53437,-10.32071 -9.9691,-10.33371 -6.65165,0 -11.14715,3.31638 -11.14715,10.19373 z"
     id="path6-5"
     sodipodi:nodetypes="ccccc" />
  <g
     transform="matrix(0.1,0,0,-0.1,-8,280.42894)"
     fill="#000000"
     stroke="none"
     id="g45">
    <path
       d="M 119,2787 85,2764 82,1618 80,472 C 370.90939,324.01108 637.3133,210.00346 903,96 c 28,-12 43,-13 58,-6 19,11 19,31 19,1170 v 1158 l -24,29 c -23,27 -49,42 -126,75 -203.02451,89.7621 -406.92874,175.0979 -580,251 -87,39 -93,39 -131,14 z M 577.24855,1397.5953 C 727.66744,1400.1135 827.61319,1316.7823 830,1145 824.27759,1051.2786 797.0666,958.44919 750,880 742,867 717,813 637,639 592.59094,541.42851 577.28479,542.03863 530,620 c -18.27165,35.28647 -32.17283,68.67982 -44,98 -15,35 -42,97 -62,138 -40.09008,94.43703 -102.77263,191.8964 -104,290 0,177.7673 118.97445,251.5953 257.24855,251.5953 z"
       id="path37"
       sodipodi:nodetypes="ccccccscccccccccccccc" />
    <path
       d="M 468.83748,1147.3998 C 468.83748,1059.1248 513.50675,1040 575,1040 c 77.94244,-1.711 105,42.2161 105,106 0,75.1395 -55.34378,103.2071 -99.69107,103.3371 -66.5165,0 -111.47145,-33.1638 -111.47145,-101.9373 z"
       id="path39"
       sodipodi:nodetypes="ccccc" />
    <path
       d="m 1800,2743 c -183.4327,-82.8466 -376.9795,-172.5019 -540,-245 -69.472,-28.4246 -120.282,-83.5935 -122,-103 l 4,-1140 c 3,-627 8,-1148 12,-1157 10,-22 57,-24 94,-4 333.8908,152.289 341.4118,155.81576 617,282 l 40,21 8,1147 c 5,631 6,1158 3,1171 -7,27 -32,55 -49,55 -7,-1 -37,-12 -67,-27 z m -282.1449,-412.753 c 165.535,0 242.1449,-99.1509 242.1449,-255.247 1.2323,-86.3595 -22.9209,-126.7502 -80,-265 -8,-13 -33,-67 -113,-241 -47.043,-96.4447 -61.6227,-99.9116 -117.9887,9.6517 -80.4067,176.1489 -56.8669,128.6956 -95.0113,207.3483 -40.6936,94.4898 -101.6162,190.1254 -104,290 0,209.0581 166.826,254.0118 267.8551,254.247 z"
       id="path41"
       sodipodi:nodetypes="cccccccccccccccccccc" />
    <path
       d="m 2104,2756 c -19,-14 -19,-39 -22,-1168 -1,-634 0,-1163 3,-1174 3,-13 25,-32 52,-47 160.5871,-88.09833 325.1528,-172.69695 465,-250 83,-45 115,-47 153,-7 l 28,29 -7,793 c 1.25,1110.1875 6.8761,1464.6967 0.8761,1483.6967 -7,22 -46.8761,38.3033 -181.8761,109.3033 -136.1595,71.7736 -285.7922,155.059 -403,216 -62,33 -62,34 -88,15 z"
       id="path43"
       sodipodi:nodetypes="cccccccccccc" />
  </g>
</svg>
