<svg xmlns="http://www.w3.org/2000/svg" xml:space="preserve" width="358.44" height="355.373"><path d="M177.104 0C79.24 0 0 79.48 0 177.5S79.241 355 177.104 355c48.02 0 91.523-19.177 123.457-50.239 3.962-3.883 4.992-9.905 2.457-14.818-2.536-4.913-8.004-7.686-13.471-6.736a139.07 139.07 0 0 1-23.852 2.06c-76.784 0-139.068-62.441-139.068-139.463 0-52.141 28.527-97.546 70.762-121.477 4.834-2.773 7.29-8.32 6.102-13.709-1.189-5.388-5.785-9.43-11.332-9.905-4.992-.396-9.984-.634-15.055-.634z"/><path d="M299.493 47.947a6.291 6.291 0 0 1 3.735 4.629l7.741 41.973 41.973 7.702a6.291 6.291 0 0 1 4.63 3.735 6.18 6.18 0 0 1-.623 5.912l-24.235 35.166 24.235 35.127a6.18 6.18 0 0 1 .622 5.913 6.291 6.291 0 0 1-4.629 3.734l-41.973 7.741-7.741 41.973a6.291 6.291 0 0 1-3.735 4.63 6.18 6.18 0 0 1-5.912-.623l-35.127-24.235-35.127 24.235a6.18 6.18 0 0 1-5.913.622 6.291 6.291 0 0 1-3.734-4.629l-7.741-41.973-41.973-7.741a6.291 6.291 0 0 1-4.63-3.734 6.18 6.18 0 0 1 .623-5.913l24.235-35.127-24.235-35.127a6.18 6.18 0 0 1-.622-5.912 6.291 6.291 0 0 1 4.629-3.735l41.973-7.741 7.741-41.973a6.291 6.291 0 0 1 3.734-4.63 6.18 6.18 0 0 1 5.913.623l35.127 24.235 35.127-24.235a6.18 6.18 0 0 1 5.912-.622zm-78.383 99.117c0-20.625 16.72-37.344 37.344-37.344 20.625 0 37.344 16.72 37.344 37.344 0 20.625-16.72 37.344-37.344 37.344-20.625 0-37.344-16.72-37.344-37.344zm87.136 0c0-27.5-22.293-49.792-49.792-49.792-27.5 0-49.792 22.293-49.792 49.792 0 27.5 22.293 49.792 49.792 49.792 27.5 0 49.792-22.293 49.792-49.792z"/></svg>