<svg xmlns="http://www.w3.org/2000/svg" xml:space="preserve" width="358.44" height="355.373"><path d="M203.928.187c-97.863 0-177.104 79.479-177.104 177.5s79.241 177.5 177.104 177.5c48.02 0 91.523-19.177 123.457-50.239 3.962-3.883 4.992-9.905 2.457-14.818-2.536-4.913-8.004-7.686-13.471-6.736a139.07 139.07 0 0 1-23.852 2.06c-76.784 0-139.068-62.441-139.068-139.463 0-52.141 28.527-97.546 70.762-121.477 4.834-2.773 7.29-8.32 6.102-13.709-1.189-5.388-5.785-9.43-11.332-9.905C213.991.504 209 .266 203.928.266z"/></svg>