<svg width="344.067" height="361.573" version="1.0" viewBox="0 0 258.05 271.18" xmlns="http://www.w3.org/2000/svg"><path transform="scale(.75)" d="M115.9.336c-38.033 0-68.865 31.036-68.865 69.32 0 33.275 23.296 61.06 54.363 67.766 5.86-43.301 38.447-78.411 80.457-87.72C173.34 21.149 147.041.337 115.9.337z"/><path d="M95.745 173.72c-2.582 0-4.277 1.426-7.451 3.963-6.024 4.835-13.794 12.383-17.453 16.954-9.996 12.49-17.467 29.232-20.862 46.753-1.88 9.697-2.612 23.496-1.355 25.53 1.462 2.365 6.553 4.245 14.492 4.245 60.371.021 124.23.005 179.81 0 7.94 0 13.03-1.88 14.492-4.245 1.257-2.034.525-15.833-1.354-25.53-3.395-17.52-10.866-34.264-20.862-46.753-3.658-4.57-11.43-12.12-17.453-16.954-3.174-2.537-4.868-3.963-7.45-3.963-1.49 0-3.196 1.051-5.583 2.9-14.03 11.747-32.038 18.837-51.695 18.918-19.657-.081-37.665-7.172-51.695-18.918-2.389-1.849-4.095-2.9-5.584-2.9z"/><g stroke-width=".921"><path d="M206.11 77.176c0 42.623-34.327 77.176-76.671 77.176-42.344 0-76.671-34.553-76.671-77.176C52.768 34.553 87.095 0 129.439 0c42.344 0 76.671 34.553 76.671 77.176" transform="translate(47.674 50.748) scale(.81399)"/><path d="M129.44-.375c-42.548 0-77.045 34.726-77.045 77.551 0 42.824 34.497 77.551 77.045 77.551s77.047-34.726 77.047-77.551S171.988-.375 129.44-.375zm0 .75c42.14 0 76.297 34.379 76.297 76.801 0 42.422-34.157 76.801-76.297 76.801s-76.295-34.379-76.295-76.801C53.145 34.754 87.3.375 129.44.375z" transform="translate(47.674 50.748) scale(.81399)"/></g><path transform="scale(.75)" d="M52.684 136.03c-2.85 0-4.718 1.573-8.22 4.373-6.647 5.334-15.222 13.665-19.259 18.709-11.03 13.781-19.273 32.255-23.02 51.588C.112 221.4-.698 236.628.69 238.872c1.613 2.61 7.232 4.684 15.992 4.684 21.846.008 42.85-.001 65.066 0 6.605-7.58 15.31-15.7 23.461-22.242l.012-.012.016-.014c2.044-1.635 4.034-3.417 7.6-5.517 1.973-1.163 4.658-2.296 7.571-3.086-11.19-15.375-18.287-33.905-19.69-53.941-15.745-2.765-30.084-9.644-41.872-19.514-2.635-2.04-4.516-3.2-6.16-3.2z"/></svg>
