<svg width="344.067" height="361.573" version="1.0" viewBox="0 0 258.05 271.18" xmlns="http://www.w3.org/2000/svg">
    <path d="M206.11 77.176c0 42.623-34.327 77.176-76.671 77.176-42.344 0-76.671-34.553-76.671-77.176C52.768 34.553 87.095 0 129.439 0c42.344 0 76.671 34.553 76.671 77.176"/>
    <path d="M58.656 151.45c-3.172 0-5.255 1.752-9.154 4.87-7.4 5.938-16.947 15.212-21.44 20.828-12.28 15.343-21.459 35.913-25.63 57.437C.124 246.498-.776 263.45.768 265.95c1.796 2.905 8.05 5.215 17.804 5.215 74.167.026 152.62.006 220.9 0 9.753 0 16.008-2.31 17.804-5.215 1.544-2.499.645-19.45-1.664-31.364-4.17-21.524-13.349-42.094-25.629-57.437-4.494-5.615-14.041-14.89-21.441-20.829-3.899-3.117-5.98-4.868-9.152-4.869h-.001c-1.83 0-3.925 1.292-6.859 3.563-17.236 14.43-39.36 23.141-63.508 23.24-24.148-.099-46.272-8.81-63.508-23.24-2.934-2.272-5.03-3.563-6.86-3.563z"/>
</svg>
