<svg width="258.51pt" height="270.92pt" version="1.0" viewBox="0 0 258.51 270.92" xmlns="http://www.w3.org/2000/svg">
  <path d="m206.11 77.176c0 42.623-34.327 77.176-76.671 77.176-42.344 0-76.671-34.553-76.671-77.176 0-42.623 34.327-77.176 76.671-77.176 42.344-1.1118e-6 76.671 34.553 76.671 77.176"/>
  <path d="m129.44-0.375c-42.548 1.68e-6 -77.045 34.726-77.045 77.551-2e-6 42.824 34.497 77.551 77.045 77.551 42.548 0 77.047-34.726 77.047-77.551s-34.499-77.551-77.047-77.551zm0 0.75c42.14-1.11e-6 76.297 34.379 76.297 76.801 0 42.422-34.157 76.801-76.297 76.801-42.14 0-76.295-34.379-76.295-76.801 0-42.422 34.155-76.801 76.295-76.801z"/>
 <path d="m74.521 270.79c-27.929-0.10959-53.106-0.26103-55.95-0.33654-9.7498-0.25887-16.007-1.9738-17.803-4.879-1.5443-2.4987-0.64547-19.45 1.663-31.363 4.1709-21.524 13.349-42.094 25.629-57.437 4.4942-5.6155 14.041-14.89 21.441-20.829 6.7106-5.3859 13.992-10.117 17.875-11.615 4.9705-1.9168 5.744-1.6607 17.486 5.7908 4.3324 2.7493 10.501 5.881 14.437 7.3297 5.6648 2.0848 15.866 4.6674 21.924 5.5504 3.2848 0.47876 12.085 0.55685 15.26 0.1354 6.999-0.92916 18.207-3.8064 24.183-6.208 5.3409-2.1465 9.3566-4.3063 16.075-8.6461 8.9918-5.808 10.51-6.06 16.918-2.8078 11.741 5.9589 29.819 21.683 39.11 34.018 10.378 13.777 19.152 33.714 22.977 52.208 1.8842 9.1098 2.5473 15.184 2.7057 24.784 0.11877 7.1982 0.0906 7.8959-0.35334 8.7433-1.357 2.5905-5.9008 4.2825-13.475 5.0179-1.8793 0.18246-19.752 0.33241-50.249 0.42157-26.033 0.0761-52.224 0.17943-58.204 0.22957-5.9795 0.0502-33.722 2e-3 -61.651-0.10807z" stroke-width=".26516"/>
</svg>
