<?xml version="1.0" encoding="UTF-8" standalone="no"?>
<svg
   xmlns:dc="http://purl.org/dc/elements/1.1/"
   xmlns:cc="http://creativecommons.org/ns#"
   xmlns:rdf="http://www.w3.org/1999/02/22-rdf-syntax-ns#"
   xmlns:svg="http://www.w3.org/2000/svg"
   xmlns="http://www.w3.org/2000/svg"
   xmlns:sodipodi="http://sodipodi.sourceforge.net/DTD/sodipodi-0.dtd"
   xmlns:inkscape="http://www.inkscape.org/namespaces/inkscape"
   version="1.0"
   width="258.51346pt"
   height="270.91769pt"
   viewBox="0 0 258.51346 270.91769"
   preserveAspectRatio="xMidYMid meet"
   id="svg10"
   sodipodi:docname="Person.svg"
   inkscape:version="1.0 (4035a4fb49, 2020-05-01)">
  <defs
     id="defs14" />
  <sodipodi:namedview
     inkscape:document-rotation="0"
     pagecolor="#ffffff"
     bordercolor="#666666"
     borderopacity="1"
     objecttolerance="10"
     gridtolerance="10"
     guidetolerance="10"
     inkscape:pageopacity="0"
     inkscape:pageshadow="2"
     inkscape:window-width="2560"
     inkscape:window-height="1377"
     id="namedview12"
     showgrid="false"
     showguides="true"
     inkscape:guide-bbox="true"
     inkscape:zoom="2.8284271"
     inkscape:cx="211.56045"
     inkscape:cy="155.15055"
     inkscape:window-x="-8"
     inkscape:window-y="-8"
     inkscape:window-maximized="1"
     inkscape:current-layer="svg10">
    <sodipodi:guide
       position="129.3348,111.86918"
       orientation="1,0"
       id="guide72" />
  </sodipodi:namedview>
  <metadata
     id="metadata2">
Created by potrace 1.10, written by Peter Selinger 2001-2011
<rdf:RDF>
  <cc:Work
     rdf:about="">
    <dc:format>image/svg+xml</dc:format>
    <dc:type
       rdf:resource="http://purl.org/dc/dcmitype/StillImage" />
  </cc:Work>
</rdf:RDF>
</metadata>
  <g
     transform="matrix(0.1,0,0,-0.1,-12.389599,276.68628)"
     fill="#000000"
     stroke="none"
     id="g8" />
  <ellipse
     style="stroke-width:0.75"
     ry="77.175644"
     rx="76.670578"
     cy="77.175644"
     cx="129.43581"
     id="path16" />
  <path
     style="fill:#000000;stroke-width:0.265165"
     d="M 74.521151,270.78985 C 46.592642,270.68026 21.415221,270.52882 18.571326,270.45331 8.8214951,270.19444 2.5640411,268.47954 0.76852389,265.57434 -0.77575536,263.07564 0.12305214,246.12452 2.4314794,234.21173 6.6023471,212.6877 15.780827,192.118 28.060843,176.77432 c 4.494216,-5.61546 14.040836,-14.88954 21.440776,-20.82868 6.710574,-5.38587 13.992222,-10.11728 17.874814,-11.61457 4.970513,-1.91683 5.744025,-1.66067 17.486153,5.79077 4.332397,2.74931 10.500945,5.88105 14.437147,7.32968 5.664787,2.08479 15.866347,4.66741 21.924497,5.55038 3.28481,0.47876 12.08545,0.55685 15.26006,0.1354 6.99902,-0.92916 18.2069,-3.80636 24.18275,-6.20801 5.34086,-2.14647 9.35655,-4.30632 16.07523,-8.64613 8.99175,-5.80805 10.50963,-6.05997 16.91761,-2.80776 11.74112,5.95891 29.81862,21.6827 39.11028,34.01807 10.3778,13.77729 19.15236,33.71438 22.97746,52.20816 1.88419,9.1098 2.54734,15.18404 2.70574,24.78396 0.11877,7.19821 0.0906,7.89586 -0.35334,8.74328 -1.35702,2.59052 -5.90081,4.2825 -13.47549,5.01791 -1.87934,0.18246 -19.75233,0.33241 -50.24878,0.42157 -26.03258,0.0761 -52.22426,0.17943 -58.20373,0.22957 -5.97947,0.0502 -33.72236,0.002 -61.650869,-0.10807 z"
     id="path97" />
</svg>
