<svg width="228.1pt" height="303.253" version="1.0" viewBox="0 0 228.1 227.44" xmlns="http://www.w3.org/2000/svg"><g stroke-linecap="round" stroke-linejoin="bevel" stroke-width="30"><path d="M107.55 182.2v9.215h-.318a4.671 4.671 0 0 0-4.681 4.682v6.895h-.897a4.672 4.672 0 0 0-4.682 4.683v13.635a4.672 4.672 0 0 0 4.682 4.683h24.791a4.672 4.672 0 0 0 4.682-4.683v-13.635a4.672 4.672 0 0 0-4.682-4.683h-.895v-6.895a4.671 4.671 0 0 0-4.682-4.682h-.317V182.2zM11.637 0A11.611 11.611 0 0 0 0 11.637v30.895c0 6.447 5.19 11.637 11.637 11.637h204.82c6.447 0 11.638-5.19 11.638-11.637V11.637A11.613 11.613 0 0 0 216.457 0zm7.207 16.748h65.322a4.432 4.432 0 0 1 4.441 4.441V32.98a4.432 4.432 0 0 1-4.441 4.442H18.844a4.43 4.43 0 0 1-4.44-4.442V21.19a4.43 4.43 0 0 1 4.44-4.442zm184.49 0a10.336 10.336 0 0 1 10.337 10.337 10.336 10.336 0 0 1-10.337 10.336 10.336 10.336 0 0 1-10.336-10.336 10.336 10.336 0 0 1 10.336-10.337zM11.637 61.5A11.611 11.611 0 0 0 0 73.137v30.895c0 6.447 5.19 11.637 11.637 11.637h204.82c6.447 0 11.638-5.19 11.638-11.637V73.137A11.613 11.613 0 0 0 216.457 61.5zm7.207 16.748h65.322a4.432 4.432 0 0 1 4.441 4.441V94.48a4.432 4.432 0 0 1-4.441 4.442H18.844a4.43 4.43 0 0 1-4.44-4.442V82.69a4.43 4.43 0 0 1 4.44-4.442zm184.49 0a10.336 10.336 0 0 1 10.337 10.337 10.336 10.336 0 0 1-10.337 10.336 10.336 10.336 0 0 1-10.336-10.336 10.336 10.336 0 0 1 10.336-10.337zM11.637 123A11.612 11.612 0 0 0 0 134.637v30.895c0 6.447 5.19 11.637 11.637 11.637h204.82c6.447 0 11.638-5.19 11.638-11.637v-30.895A11.613 11.613 0 0 0 216.457 123zm7.207 16.748h65.322a4.432 4.432 0 0 1 4.441 4.441v11.791a4.432 4.432 0 0 1-4.441 4.442H18.844a4.43 4.43 0 0 1-4.44-4.442v-11.79a4.43 4.43 0 0 1 4.44-4.442zm184.49 0a10.336 10.336 0 0 1 10.337 10.337 10.336 10.336 0 0 1-10.337 10.336 10.336 10.336 0 0 1-10.336-10.336 10.336 10.336 0 0 1 10.336-10.337zM26.084 202.03a12.708 12.708 0 0 0-12.708 12.708 12.708 12.708 0 0 0 12.708 12.708 12.708 12.708 0 0 0 10.806-6.061h56v-13H37.087a12.708 12.708 0 0 0-11.002-6.353zm175.93 0a12.708 12.708 0 0 0-10.982 6.353h-55.824v13h56a12.708 12.708 0 0 0 10.806 6.061 12.708 12.708 0 0 0 12.708-12.707 12.708 12.708 0 0 0-12.708-12.708z"/></g></svg>
