<svg width="284.22pt" height="283.91pt" version="1.0" viewBox="0 0 284.22 283.91" xmlns="http://www.w3.org/2000/svg">
 <g transform="matrix(.1 0 0 -.1 -2.0546 285.71)">
  <path d="m1073 2844c-16-3-59-17-98-30-38-14-123-42-187-64-193-64-195-66-159-160 106-279-15-432-286-360-110 29-100 38-198-180-26-58-65-143-86-189-56-120-54-131 27-176 244.91-126.42 236.37-347.16-13-476-87.289-50.015-42.654-109.17-14-189 17-47 54-154 83-239 51.544-123.15 32.897-194.56 151-154 281.79 118.57 438.1-70.621 367-284-29-111-39-100 190-203 63-28 154-69 201-91 103.35-45.949 111.88-46.86 169 39 119.52 218.25 325.85 208.48 450-1 63.636-96.131 88.894-74.48 169-38 47 22 138 63 201 91 130.38 57.634 223.46 70.27 190 203-57.555 295.64 98.2 399 360 286 94-36 96-34 160 159 22 64 51 149 64 187 14 39 26 78 26 87 92.105 172.05-121.29 205.24-186 310-43 83-26 175 43 240 164.38 104.79 198.04 101.25 124 268-28 66-115 259-143 317-12 23-30 44-40 46-11 3-52-3-91-13-312.42-60.572-437.56 64.124-284 367 17 49 16.857 69.143-16.857 90-11 17-330.14 134-428.14 157-131.25 34.952-108.17 9.1113-224-190-84-86-214-86-298 0-99.269 125.65-79.29 241.09-223 190zm988.59-1340.9c0-480.76-308.48-659.11-593.44-659.11-399.11 0-638.15 226.61-638.15 549.02 0 398.09 216.16 661.2 610 666 462.72 0 621.59-283.37 621.59-555.91z"/>
 </g>
</svg>
