<svg width="291.58pt" height="283.55pt" version="1.0" viewBox="0 0 291.58 283.55" xmlns="http://www.w3.org/2000/svg">
 <g transform="translate(-1.9759 -2.1017)" display="none" opacity=".28064">
  <g transform="matrix(.1 0 0 -.1 -2.0546 285.71)">
   <path d="m1073 2844c-16-3-59-17-98-30-38-14-123-42-187-64-193-64-195-66-159-160 106-279-15-432-286-360-110 29-100 38-198-180-26-58-65-143-86-189-56-120-54-131 27-176 244.91-126.42 236.37-347.16-13-476-87.289-50.015-42.654-109.17-14-189 17-47 54-154 83-239 51.544-123.15 32.897-194.56 151-154 281.79 118.57 438.1-70.621 367-284-29-111-39-100 190-203 63-28 154-69 201-91 103.35-45.949 111.88-46.86 169 39 119.52 218.25 325.85 208.48 450-1 63.636-96.131 88.894-74.48 169-38 47 22 138 63 201 91 130.38 57.634 223.46 70.27 190 203-57.555 295.64 98.2 399 360 286 94-36 96-34 160 159 22 64 51 149 64 187 14 39 26 78 26 87 92.105 172.05-121.29 205.24-186 310-43 83-26 175 43 240 164.38 104.79 198.04 101.25 124 268-28 66-115 259-143 317-12 23-30 44-40 46-11 3-52-3-91-13-312.42-60.572-437.56 64.124-284 367 17 49 16.857 69.143-16.857 90-11 17-330.14 134-428.14 157-131.25 34.952-108.17 9.1113-224-190-84-86-214-86-298 0-99.269 125.65-79.29 241.09-223 190zm988.59-1340.9c0-480.76-308.48-659.11-593.44-659.11-399.11 0-638.15 226.61-638.15 549.02 0 398.09 216.16 661.2 610 666 462.72 0 621.59-283.37 621.59-555.91z"/>
  </g>
 </g>
 <g transform="translate(-1.9759 -2.1017)">
  <path transform="scale(.75)" d="m157.58 3.8496c-23.877-4.7258-54.145 6.9326-67.816 27.07-10.455 15.4 13.18 42.8-0.10156 55.84-13.522 13.276-40.962-11.282-56.842-0.94141-20.884 13.598-34.17 44.463-29.105 68.863 3.8783 18.687 41.317 20.427 41.436 39.512 0.11742 18.852-36.923 21.016-40.441 39.537-4.5645 24.031 9.5938 53.49 30.008 66.965 15.287 10.091 41.768-11.772 54.943 0.95313 12.697 12.264-7.5852 38.581 2.7578 52.887 13.738 19.001 42.454 29.487 65.559 25.494 17-2.9376 21.893-33.853 39.145-33.857 17.243-4e-3 22.148 30.895 39.141 33.82 23.096 3.9759 51.774-6.5427 65.508-25.533 10.332-14.288-9.8705-40.567 2.8066-52.822 13.145-12.707 39.591 9.0337 54.838-1.0547 20.357-13.469 34.456-42.85 29.926-66.836-3.4901-18.481-40.368-20.734-40.25-39.541 0.11959-19.041 37.398-20.87 41.25-39.518 5.0316-24.361-8.195-55.153-29.025-68.75-15.839-10.339-43.245 14.09-56.736 0.83398-13.261-13.03 10.282-40.393-0.16211-55.773-13.666-20.125-43.888-31.821-67.754-27.113-18.015 3.5531-21.179 38.356-39.541 38.352-18.37-0.004206-21.521-34.82-39.541-38.387zm39.541 105.36c46.944 0 85 38.056 85 85s-38.056 85-85 85-85-38.056-85-85 38.056-85 85-85z" color="#000000"
        dominant-baseline="auto" solid-color="#000000" stop-color="#000000" />
  <path d="m147.84 81.887c-35.217 2e-6 -63.766 28.551-63.766 63.768 3e-6 35.217 28.549 63.766 63.766 63.766 35.212 0 63.757-28.54 63.766-63.75v-0.0156-0.0176c-0.01-35.209-28.555-63.75-63.766-63.75zm0 0.0332c35.194 0 63.725 28.525 63.734 63.717v0.0176 0.0156c-9e-3 35.192-28.54 63.717-63.734 63.717-35.2 0-63.734-28.533-63.734-63.732-1e-6 -35.2 28.535-63.734 63.734-63.734z" color="#000000"
        dominant-baseline="auto" fill="#fff" opacity=".66452" solid-color="#000000" stop-color="#000000" />
 </g>
</svg>
