<svg width="388.773" height="378.067" version="1.0" viewBox="0 0 291.58 283.55" xmlns="http://www.w3.org/2000/svg"><path d="M116.21.785C98.3-2.759 75.6 5.986 65.346 21.088c-7.841 11.55 9.885 32.1-.076 41.88-10.142 9.957-30.722-8.462-42.632-.706C6.976 72.46-2.988 95.609.811 113.909c2.908 14.015 30.987 15.32 31.077 29.634.088 14.14-27.693 15.762-30.331 29.653-3.423 18.023 7.195 40.117 22.506 50.224 11.465 7.568 31.326-8.83 41.207.715 9.523 9.198-5.689 28.935 2.069 39.665 10.303 14.25 31.84 22.115 49.169 19.12 12.75-2.203 16.42-25.39 29.359-25.392 12.932-.003 16.61 23.17 29.355 25.365 17.322 2.981 38.83-4.907 49.131-19.15 7.75-10.716-7.403-30.425 2.105-39.617 9.859-9.53 29.693 6.776 41.129-.79 15.267-10.102 25.842-32.138 22.444-50.128-2.617-13.86-30.276-15.55-30.187-29.655.09-14.281 28.048-15.653 30.937-29.639 3.774-18.27-6.146-41.365-21.769-51.562-11.879-7.755-32.433 10.567-42.552.625-9.945-9.772 7.712-30.295-.121-41.83C216.089 6.054 193.423-2.718 175.523.813c-13.51 2.664-15.884 28.767-29.655 28.764-13.778-.004-16.141-26.115-29.656-28.79zm29.655 79.02c35.208 0 63.75 28.542 63.75 63.75s-28.542 63.75-63.75 63.75-63.75-28.542-63.75-63.75 28.542-63.75 63.75-63.75z"/><path d="M145.864 79.785c-35.217 0-63.766 28.551-63.766 63.768s28.55 63.766 63.766 63.766c35.212 0 63.757-28.54 63.766-63.75v-.033c-.01-35.209-28.555-63.75-63.766-63.75zm0 .034c35.194 0 63.725 28.524 63.734 63.716v.034c-.009 35.192-28.54 63.717-63.734 63.717-35.2 0-63.734-28.533-63.734-63.732 0-35.2 28.535-63.734 63.734-63.734z" color="#000" fill="#fff" opacity=".665"/></svg>