<svg viewBox="0 0 270.06 267.09" xmlns="http://www.w3.org/2000/svg">
 <g transform="translate(-.49951 -4.5791)">
  <path transform="scale(.75)" d="m0.66602 9.7227v298.96c0.046934 2.8741 0.25213 2.6741 2.535 3.6641l110.65 47.987c3.8989 1.918 3.6147 1.7537 3.6147-2.3528v-297.68c-0.0605-3.8542 0.32855-4.1331-2.8087-5.4937l-110.14-47.768c-2.988-1.1299-3.8517-1.741-3.8517 2.6812zm65.271 177.53c19.088 0 34.562 15.922 34.562 35.562 2.2e-4 6.4076-1.6821 12.696-4.8691 18.201l-25.939 55.648c-1.8045 3.8714-3.0529 3.8185-5.0156-0.0742l-28.344-55.426c-0.68826-1.1762-1.3097-2.3924-1.8613-3.6426l-0.21875-0.42578 0.03711 8e-3c-1.9214-4.5044-2.9137-9.3701-2.9141-14.289 0-19.641 15.474-35.562 34.562-35.562zm0 20.625c-8.0178-6e-5 -14.518 6.6877-14.518 14.938s6.4998 14.938 14.518 14.938c8.0178 6e-5 14.518-6.6877 14.518-14.938s-6.4998-14.938-14.518-14.938z"/>
  <path transform="scale(.75)" d="m236.43 8.5914-86.609 38.801c-9.3133 4.1592-8.1971 3.54-8.1971 14.952v297.52c-0.0201 2.6943-0.30938 2.8029 2.1555 1.7437l97.364-41.839c2.3162-0.98051 2.0784-1.6006 2.0784-3.5142v-303.35c0.15129-9.1976 0.75524-7.3665-6.7914-4.3133zm-44.714 54.614c19.088 0 34.562 15.922 34.562 35.562-1.9e-4 6.4108-1.6846 12.702-4.875 18.209l-25.934 55.643c-1.8045 3.8714-3.0529 3.8185-5.0156-0.0742l-28.357-55.453c-0.6778-1.1591-1.2908-2.357-1.8359-3.5879l-0.23243-0.45508 0.0391 8e-3c-1.9214-4.5044-2.9136-9.3699-2.9141-14.289 0-19.641 15.474-35.562 34.562-35.562zm0 20.625c-8.0178-6e-5 -14.518 6.6877-14.518 14.938 0 8.2498 6.4998 14.938 14.518 14.938 8.0178 7e-5 14.518-6.6877 14.518-14.938 0-8.2498-6.4998-14.938-14.518-14.938z"/>
  <path d="m267.64 36.871-59.959-29.533c-6.555-3.2203-6.5798-4.161-6.4472 2.3579v225.51c-0.0251 3.9614 0.03 3.9662 3.1935 5.4609l62.579 29.567c3.8853 1.693 3.4322 1.9822 3.5316-1.5506v-224.87c0.0476-4.7459 0.23478-5.4796-2.8976-6.934z"/>
 </g>
</svg>
